<?xml version="1.0" encoding="UTF-8"?>
<svg width="123px" height="140px" viewBox="0 0 123 140" version="1.1" xmlns="http://www.w3.org/2000/svg" xmlns:xlink="http://www.w3.org/1999/xlink">
    <title>logo-qover_v-gradient</title>
    <defs>
        <linearGradient x1="11.5228712%" y1="52.1385374%" x2="171.255554%" y2="20.0426115%" id="linearGradient-1">
            <stop stop-color="#317BDA" offset="0%"></stop>
            <stop stop-color="#42C8CD" offset="100%"></stop>
        </linearGradient>
    </defs>
    <g id="Symbols" stroke="none" stroke-width="1" fill="none" fill-rule="evenodd">
        <g id="logo/qover-v/gradient" fill="url(#linearGradient-1)">
            <path d="M60.6003738,0.654205607 C44.5350467,0.701308411 29.2737383,10.1480374 22.5975701,25.8692523 L22.5975701,25.8692523 C18.1771028,36.2482243 18.1771028,47.9715888 22.5975701,58.3499065 L22.5975701,58.3499065 L34.2247664,51.5271963 C33.1682243,48.4517757 32.591215,45.2808411 32.591215,42.0130841 L32.591215,42.0130841 C32.4950467,26.5424299 45.083271,13.8580374 60.6507477,13.8580374 L60.6507477,13.8580374 C76.2182243,13.8580374 88.9026168,26.3500935 88.9026168,41.9175701 L88.9026168,41.9175701 C88.9026168,45.1846729 88.3262617,48.5485981 87.1728972,51.6227103 L87.1728972,51.6227103 L98.8007477,58.3499065 C107.737196,37.3047664 97.9352336,12.9931776 76.8907477,3.96056075 L76.8907477,3.96056075 C71.6446729,1.73233645 66.1990654,0.669252336 60.8365421,0.654205607 L60.8365421,0.654205607 L60.6003738,0.654205607 Z M42.5848598,63.6345794 C41.3353271,62.5780374 40.278785,61.5208411 39.222243,60.2713084 L39.222243,60.2713084 L27.4982243,66.9016822 C41.1436449,85.1599065 66.8971028,88.9078505 85.1546729,75.2617757 L85.1546729,75.2617757 C85.635514,74.9739252 86.0195327,74.5899065 86.4042056,74.3014019 L86.4042056,74.3014019 L86.7888785,74.4937383 L96.0138318,79.7784112 C98.512243,77.4723364 100.72215,74.9739252 102.740374,72.1876636 L102.740374,72.1876636 L82.1760748,60.2713084 C72.1824299,72.1876636 54.4050467,73.6288785 42.5848598,63.6345794 L42.5848598,63.6345794 Z M87.5497196,107.24 C86.1451402,107.831402 84.9073832,108.660935 83.8384112,109.729907 L83.8384112,109.729907 C82.7681308,110.800841 81.9143925,112.101402 81.2758879,113.633551 L81.2758879,113.633551 C80.6373832,115.167009 80.3181308,116.875794 80.3181308,118.758598 L80.3181308,118.758598 C80.3181308,120.738879 80.6445794,122.511121 81.2994393,124.075327 L81.2994393,124.075327 C81.9542991,125.640187 82.8400935,126.964953 83.9574766,128.05028 L83.9574766,128.05028 C85.0748598,129.136262 86.3688785,129.958598 87.8375701,130.51729 L87.8375701,130.51729 C89.3056075,131.075327 90.8547664,131.355327 92.4837383,131.355327 L92.4837383,131.355327 C93.9203738,131.355327 95.2379439,131.15514 96.4351402,130.756729 L96.4351402,130.756729 C97.6323364,130.357664 98.6771028,129.822523 99.5720561,129.152617 L99.5720561,129.152617 C100.465047,128.482056 101.224579,127.691121 101.846729,126.781121 L101.846729,126.781121 C102.280467,126.14785 102.627196,125.485794 102.898037,124.798224 L102.898037,124.798224 L97.5368224,123.102523 C97.1652336,123.800561 96.6713084,124.397196 96.0517757,124.889813 L96.0517757,124.889813 C95.2045794,125.560374 94.0315888,125.895327 92.5314953,125.895327 L92.5314953,125.895327 C91.7327103,125.895327 90.9823364,125.759907 90.2797196,125.488411 L90.2797196,125.488411 C89.5771028,125.21757 88.9621495,124.842056 88.4361682,124.362523 L88.4361682,124.362523 C87.9088785,123.884299 87.4784112,123.317103 87.1428037,122.662243 L87.1428037,122.662243 C86.8071963,122.008037 86.6240187,121.29757 86.5919626,120.531495 L86.5919626,120.531495 L103.451495,120.531495 C103.451495,120.467383 103.467196,120.235794 103.499252,119.836729 L103.499252,119.836729 C103.530654,119.437664 103.547009,119.014393 103.547009,118.56757 L103.547009,118.56757 C103.547009,114.767944 102.52514,111.782804 100.482056,109.610841 L100.482056,109.610841 C98.4376636,107.439533 95.5800935,106.353551 91.9080374,106.353551 L91.9080374,106.353551 C90.4066355,106.353551 88.9556075,106.649907 87.5497196,107.24 L87.5497196,107.24 Z M87.1428037,114.544206 C87.3828972,114.001869 87.7250467,113.506636 88.1731776,113.059159 L88.1731776,113.059159 C88.6193458,112.612336 89.1623364,112.244673 89.8008411,111.957477 L89.8008411,111.957477 C90.44,111.67028 91.1740187,111.526355 92.0048598,111.526355 L92.0048598,111.526355 C92.8978505,111.526355 93.6730841,111.663084 94.3272897,111.933925 L94.3272897,111.933925 C94.9814953,112.205421 95.5251402,112.556075 95.9562617,112.987196 L95.9562617,112.987196 C96.386729,113.418318 96.7053271,113.913551 96.9140187,114.472243 L96.9140187,114.472243 C97.1207477,115.030935 97.2404673,115.597477 97.2731776,116.172523 L97.2731776,116.172523 L86.7365421,116.172523 C86.7666355,115.629533 86.9033645,115.087196 87.1428037,114.544206 L87.1428037,114.544206 Z M36.0872897,107.287757 C34.5708411,107.909907 33.2624299,108.77215 32.1600935,109.874486 L32.1600935,109.874486 C31.0584112,110.976168 30.1961682,112.293084 29.5733645,113.825888 L29.5733645,113.825888 C28.9518692,115.358037 28.6404673,117.034766 28.6404673,118.854766 L28.6404673,118.854766 C28.6404673,120.674766 28.9518692,122.343645 29.5733645,123.859439 L29.5733645,123.859439 C30.1961682,125.376542 31.0584112,126.693458 32.1600935,127.810841 L32.1600935,127.810841 C33.2624299,128.929533 34.5708411,129.798972 36.0872897,130.421121 L36.0872897,130.421121 C37.6030841,131.043925 39.2405607,131.355327 40.9964486,131.355327 L40.9964486,131.355327 C42.7523364,131.355327 44.3898131,131.043925 45.9056075,130.421121 L45.9056075,130.421121 C47.4220561,129.798972 48.7317757,128.929533 49.8334579,127.810841 L49.8334579,127.810841 C50.934486,126.693458 51.7973832,125.376542 52.4201869,123.859439 L52.4201869,123.859439 C53.0423364,122.343645 53.3537383,120.674766 53.3537383,118.854766 L53.3537383,118.854766 C53.3537383,117.034766 53.0423364,115.358037 52.4201869,113.825888 L52.4201869,113.825888 C51.7973832,112.293084 50.934486,110.976168 49.8334579,109.874486 L49.8334579,109.874486 C48.7317757,108.77215 47.4220561,107.909907 45.9056075,107.287757 L45.9056075,107.287757 C44.3898131,106.665607 42.7523364,106.353551 40.9964486,106.353551 L40.9964486,106.353551 C39.2405607,106.353551 37.6030841,106.665607 36.0872897,107.287757 L36.0872897,107.287757 Z M38.7453271,125.128598 C38.0106542,124.842056 37.3728037,124.419439 36.8298131,123.859439 L36.8298131,123.859439 C36.2861682,123.301402 35.8478505,122.606636 35.5128972,121.776449 L35.5128972,121.776449 C35.1779439,120.946262 35.0098131,119.972804 35.0098131,118.854766 L35.0098131,118.854766 C35.0098131,117.737383 35.1779439,116.763925 35.5128972,115.933084 L35.5128972,115.933084 C35.8478505,115.102897 36.2861682,114.408785 36.8298131,113.850093 L36.8298131,113.850093 C37.3728037,113.291402 38.0106542,112.867477 38.7453271,112.58028 L38.7453271,112.58028 C39.4806542,112.293084 40.2303738,112.149813 40.9964486,112.149813 L40.9964486,112.149813 C41.7638318,112.149813 42.5128972,112.293084 43.2482243,112.58028 L43.2482243,112.58028 C43.982243,112.867477 44.6207477,113.291402 45.1637383,113.850093 L45.1637383,113.850093 C45.706729,114.408785 46.1457009,115.102897 46.4813084,115.933084 L46.4813084,115.933084 C46.8162617,116.763925 46.9830841,117.737383 46.9830841,118.854766 L46.9830841,118.854766 C46.9830841,119.972804 46.8162617,120.946262 46.4813084,121.776449 L46.4813084,121.776449 C46.1457009,122.606636 45.706729,123.301402 45.1637383,123.859439 L45.1637383,123.859439 C44.6207477,124.419439 43.982243,124.842056 43.2482243,125.128598 L43.2482243,125.128598 C42.5128972,125.415794 41.7638318,125.560374 40.9964486,125.560374 L40.9964486,125.560374 C40.2303738,125.560374 39.4806542,125.415794 38.7453271,125.128598 L38.7453271,125.128598 Z M6.63299065,107.455234 C5.24411215,108.094393 4.06261682,108.964486 3.08850467,110.065514 L3.08850467,110.065514 C2.11504673,111.167196 1.35682243,112.468411 0.813831776,113.969159 L0.813831776,113.969159 C0.270841121,115.469907 0,117.082523 0,118.807009 L0,118.807009 C0,120.594953 0.287196262,122.239626 0.862242991,123.73972 L0.862242991,123.73972 C1.43663551,125.241121 2.22691589,126.550187 3.23308411,127.66757 L3.23308411,127.66757 C4.23859813,128.785607 5.44299065,129.655047 6.8488785,130.27785 L6.8488785,130.27785 C8.25345794,130.900654 9.80130841,131.212056 11.4957009,131.212056 L11.4957009,131.212056 C13.0592523,131.212056 14.4082243,130.948411 15.5419626,130.421121 L15.5419626,130.421121 C16.6743925,129.89514 17.5124299,129.184019 18.056729,128.28972 L18.056729,128.28972 L18.056729,139.737009 L24.2828037,139.737009 L24.2828037,107.072523 L18.2006542,107.072523 L18.2006542,109.802523 C18.0397196,109.483271 17.7852336,109.124112 17.4339252,108.724393 L17.4339252,108.724393 C17.0819626,108.325981 16.6194393,107.966822 16.0457009,107.646916 L16.0457009,107.646916 C15.4693458,107.327664 14.792243,107.056822 14.0098131,106.83243 L14.0098131,106.83243 C13.2260748,106.609346 12.3245794,106.497477 11.3027103,106.497477 L11.3027103,106.497477 C9.5788785,106.497477 8.02252336,106.817383 6.63299065,107.455234 L6.63299065,107.455234 Z M8.11803738,123.73972 C6.98429907,122.558879 6.41775701,120.914206 6.41775701,118.807009 L6.41775701,118.807009 C6.41775701,116.699813 6.98429907,115.070841 8.11803738,113.921402 L8.11803738,113.921402 C9.2511215,112.771963 10.6328037,112.196916 12.2611215,112.196916 L12.2611215,112.196916 C13.8900935,112.196916 15.2704673,112.771963 16.4048598,113.921402 L16.4048598,113.921402 C17.5366355,115.070841 18.1031776,116.699813 18.1031776,118.807009 L18.1031776,118.807009 C18.1031776,120.914206 17.5366355,122.558879 16.4048598,123.73972 L16.4048598,123.73972 C15.2704673,124.921869 13.8900935,125.511963 12.2611215,125.511963 L12.2611215,125.511963 C10.6328037,125.511963 9.2511215,124.921869 8.11803738,123.73972 L8.11803738,123.73972 Z M118.837103,107.024766 C118.214953,107.120935 117.59215,107.296262 116.97,107.550748 L116.97,107.550748 C116.346542,107.807196 115.755794,108.182056 115.197757,108.676636 L115.197757,108.676636 C114.639065,109.172523 114.183084,109.802523 113.83243,110.568598 L113.83243,110.568598 L113.83243,107.072523 L107.654112,107.072523 L107.654112,130.637009 L114.024112,130.637009 L114.024112,119.86028 C114.024112,118.583925 114.191589,117.521495 114.526542,116.675607 L114.526542,116.675607 C114.862804,115.82972 115.301121,115.151308 115.843458,114.63972 L115.843458,114.63972 C116.386449,114.129439 117.024953,113.76243 117.759626,113.538037 L117.759626,113.538037 C118.494299,113.315607 119.276075,113.203084 120.106916,113.203084 L120.106916,113.203084 C120.745421,113.203084 121.383271,113.267196 122.02243,113.394766 L122.02243,113.394766 L122.02243,106.976355 C121.76729,106.944953 121.52,106.921402 121.280561,106.904393 L121.280561,106.904393 C121.041121,106.888692 120.793178,106.880841 120.538037,106.880841 L120.538037,106.880841 C120.027103,106.880841 119.460561,106.928598 118.837103,107.024766 L118.837103,107.024766 Z M72.7038318,107.072523 L67.1005607,122.877477 L61.2565421,107.072523 L54.2643925,107.072523 L63.891028,130.637009 L70.2616822,130.637009 L79.4094393,107.072523 L72.7038318,107.072523 Z" id="logo-qover_v-gradient"></path>
        </g>
    </g>
</svg>