<?xml version="1.0" encoding="UTF-8"?>
<svg width="935px" height="371px" viewBox="0 0 935 371" version="1.1" xmlns="http://www.w3.org/2000/svg" xmlns:xlink="http://www.w3.org/1999/xlink">
    <!-- Generator: sketchtool 51.2 (57519) - http://www.bohemiancoding.com/sketch -->
    <title>B7C2CCA6-1D9A-4890-894C-68FFE7187058</title>
    <desc>Created with sketchtool.</desc>
    <defs>
        <polygon id="path-1" points="0 1.99840144e-15 935 1.99840144e-15 935 226 0 371"></polygon>
    </defs>
    <g id="Page-1" stroke="none" stroke-width="1" fill="none" fill-rule="evenodd">
        <g id="Quote">
            <g id="background-Travel">
                <mask id="mask-2" fill="white">
                    <use xlink:href="#path-1"></use>
                </mask>
                <use id="Mask" fill="#317BDA" fill-rule="evenodd" xlink:href="#path-1"></use>
                <g id="Group" opacity="0.4" stroke-width="1" fill-rule="evenodd" mask="url(#mask-2)">
                    <g transform="translate(-4.000000, -7.000000)" fill-rule="nonzero">
                        <g id="bkgrnd/1-avion" opacity="0.8" transform="translate(812.000000, 32.000000) rotate(14.000000) translate(-812.000000, -32.000000) translate(791.000000, 11.000000)">
                            <path d="M28.9566169,21.4291637 C29.1051347,21.7098638 29.1546406,22.0373473 29.1051347,22.3180474 C29.0556288,22.6455309 28.8080991,22.926231 28.5110636,23.1133644 L26.9268738,23.9554648 L26.778356,25.4525321 C27.0753916,25.312182 27.471439,25.2653986 27.7684746,25.4057487 C28.1150161,25.5460988 28.3625458,25.7332322 28.5110636,26.0139323 L28.5605695,26.0607156 C28.5605695,26.0607156 28.6100754,26.107499 28.6100754,26.1542823 C28.907111,26.7156826 28.6595813,27.3706495 28.0655102,27.6045663 L26.4813204,28.4466666 L26.2337908,31.6279346 C26.2337908,31.7682847 26.1347789,31.9086347 25.9862611,32.0022014 L23.6594824,33.4992687 C23.6099765,33.5460521 23.5109646,33.5928354 23.4614587,33.5928354 C23.1644231,33.6396188 22.8673875,33.4524854 22.8178816,33.1717852 L20.7386325,23.5344146 C20.6891266,23.2537145 20.8871503,22.9730144 21.1841859,22.926231 C21.4812215,22.8794477 21.7782571,23.0665811 21.827763,23.3472812 L23.8575061,32.2829015 L25.2931781,31.3472345 L25.5407078,28.1659665 C25.5407078,27.9788331 25.6397196,27.838483 25.7882374,27.7449163 L27.6199568,26.7624659 C27.6694627,26.7624659 27.6694627,26.7156826 27.7189687,26.6688992 C27.7189687,26.6688992 27.7189687,26.6221159 27.7189687,26.6221159 L27.6694627,26.5753325 C27.5704509,26.4817658 27.4219331,26.3881991 27.3724272,26.4349825 L26.4813204,26.902816 C26.3823086,26.9963827 26.2337908,26.9963827 26.1347789,26.9963827 C25.8377433,26.9495993 25.6397196,26.7156826 25.6892255,26.4349825 L25.9862611,23.6747647 C25.9862611,23.5344146 26.085273,23.3940645 26.2337908,23.3004978 L28.0655102,22.2712641 C28.0655102,22.2244807 28.1150161,22.2244807 28.1150161,22.1776974 C28.1150161,22.130914 28.1150161,22.0373473 28.0655102,21.990564 L28.0160043,21.9437806 C27.9664983,21.8034305 27.8674865,21.7098638 27.7189687,21.7098638 L26.8278619,22.1776974 C26.5803323,22.3180474 26.2337908,22.2244807 26.085273,21.990564 C25.9367552,21.7566472 26.0357671,21.4291637 26.2832967,21.2888137 L27.1744034,20.8209801 C27.520945,20.6338467 27.9169924,20.6338467 28.2635339,20.8209801 C28.5605695,20.9613302 28.8080991,21.1484636 28.9566169,21.4291637 Z M35.986459,11.0432594 C36.3330005,11.6046597 36.2339886,12.5871101 32.8180795,15.1601945 C29.9467355,17.2654453 26.8773679,19.1835628 23.7089883,20.8677635 C20.2930792,22.7390976 16.7286522,24.3297316 13.0652134,25.6396655 L12.3226244,29.3823337 C12.2731185,29.6162504 12.0750948,29.8033839 11.8275651,29.8033839 L10.7384347,29.8969506 L10.6889288,29.8969506 C10.4413991,29.9437339 10.1938695,29.7566005 10.1443635,29.5226837 L9.20375085,25.4993154 L6.03537133,22.6923142 C5.83734761,22.5519642 5.83734761,22.2244807 5.9858654,22.0373473 L6.62944249,21.195247 C6.72845435,21.0081135 6.975984,20.9145468 7.22351365,21.0081135 L10.8869525,22.2244807 C13.0157075,20.5870634 15.2929802,19.0899961 17.619759,17.7332789 L9.10473899,10.4818592 C9.05523306,10.4818592 9.00572713,10.3882925 8.9562212,10.3415091 C8.80770341,10.060809 8.9562212,9.7801089 9.20375085,9.63975885 L11.7285533,8.47017503 C11.8770711,8.37660832 12.0750948,8.37660832 12.2236126,8.47017503 L15.2434743,9.87367561 L16.8276641,9.03157526 C17.0751937,8.8912252 17.4217352,8.84444185 17.7187708,8.8912252 C18.0158064,8.93800856 18.312842,9.12514197 18.4613598,9.40584208 L18.5108657,9.45262544 C18.6593835,9.73332555 18.7088894,10.0140257 18.6593835,10.3415091 C18.6098776,10.6222093 18.4118538,10.9029094 18.1148183,11.0900428 L19.5504902,11.7450097 L21.13468,10.9029094 C21.4812215,10.715776 21.827763,10.715776 22.1743045,10.856126 C22.520846,10.9964761 22.7683757,11.1836095 22.9168935,11.4643096 L22.9663994,11.511093 C23.1149172,11.7917931 23.213929,12.0724932 23.1644231,12.3999767 C23.1149172,12.7274601 22.9168935,13.0549436 22.570352,13.242077 L21.6792452,13.7099105 C21.4317156,13.8502606 21.0851741,13.7566939 20.9366563,13.5227771 C20.7881385,13.2888604 20.8871503,12.9613769 21.13468,12.8210268 L22.0257867,12.3531933 C22.0752927,12.3064099 22.0752927,12.3064099 22.0752927,12.2596266 C22.0752927,12.2128432 22.0752927,12.1192765 22.0257867,12.0257098 L21.9762808,11.9789265 C21.9762808,11.9321431 21.8772689,11.8853598 21.827763,11.8385764 C21.7782571,11.8385764 21.7782571,11.8385764 21.7287511,11.8385764 L19.8970317,12.8210268 C19.7485139,12.9145935 19.5504902,12.9145935 19.4019724,12.8210268 L16.7286522,11.651443 C16.6296404,11.6046597 16.5306285,11.511093 16.4811226,11.4175262 C16.3326048,11.1836095 16.4316166,10.856126 16.6791463,10.715776 L17.570253,10.2479424 C17.619759,10.2011591 17.619759,10.2011591 17.619759,10.1543757 C17.619759,10.1075924 17.619759,10.0140257 17.570253,9.96724232 L17.5207471,9.92045896 C17.5207471,9.87367561 17.4712412,9.87367561 17.4712412,9.87367561 C17.4217352,9.87367561 17.3722293,9.87367561 17.3227234,9.92045896 L15.491004,10.9029094 C15.3424862,10.9964761 15.1444625,10.9964761 14.9959447,10.9029094 L11.9760829,9.49940879 L10.3918932,10.2011591 L18.9069131,17.359012 C18.9564191,17.4057954 18.9564191,17.4525787 19.005925,17.4993621 C19.1544428,17.7332789 19.0554309,18.0607623 18.8079013,18.2011124 C16.184087,19.6513963 13.7087905,21.2888137 11.3820118,23.1133644 C11.233494,23.2069311 11.0354703,23.2537145 10.8374465,23.2069311 L7.22351365,21.990564 L7.07499586,22.1776974 L10.0453517,24.7975651 C10.0948576,24.8911318 10.1938695,24.9846985 10.1938695,25.0782652 L11.0849762,28.8209334 L11.2829999,28.8209334 L12.0255889,25.1718319 C12.0750948,24.9846985 12.2236126,24.8443485 12.4216363,24.7975651 C16.1345811,23.5344146 19.699008,21.9437806 23.1149172,20.0256631 C31.035866,15.7215947 34.9468345,12.3064099 34.9963404,11.511093 C34.6993048,11.1836095 31.9764787,11.1836095 23.5604706,15.768378 C23.3129409,15.9087281 22.9663994,15.8151614 22.8178816,15.5812446 C22.6693638,15.3473279 22.7683757,15.0198444 23.0159053,14.8794943 L24.2535536,14.1777441 C24.3525654,14.1309607 24.4020714,14.0841774 24.5010832,14.0841774 C31.2338897,10.5754259 35.0953522,9.54619214 35.986459,11.0432594 Z" id="Combined-Shape" fill="#FFFFFF" opacity="0.95"></path>
                        </g>
                        <g id="bkgrnd/1-avion" opacity="0.75" transform="translate(696.587401, 165.175733) rotate(30.000000) translate(-696.587401, -165.175733) translate(676.587401, 145.175733)">
                            <path d="M27.5777304,20.4087274 C27.7191759,20.6760608 27.7663244,20.9879498 27.7191759,21.2552833 C27.6720274,21.5671723 27.4362849,21.8345057 27.1533939,22.012728 L25.6446417,22.8147284 L25.5031962,24.2405067 C25.7860872,24.10684 26.1632753,24.0622844 26.4461663,24.1959511 C26.7762058,24.3296179 27.0119483,24.5078402 27.1533939,24.7751736 L27.2005424,24.8197292 C27.2005424,24.8197292 27.2476909,24.8642848 27.2476909,24.9088403 C27.5305819,25.4435072 27.2948394,26.0672853 26.7290573,26.2900631 L25.2203052,27.0920635 L24.9845626,30.1218425 C24.9845626,30.2555092 24.8902656,30.3891759 24.7488201,30.4782871 L22.5328404,31.9040654 C22.4856919,31.948621 22.3913949,31.9931766 22.3442464,31.9931766 C22.0613553,32.0377322 21.7784643,31.8595099 21.7313158,31.5921764 L19.7510786,22.4137282 C19.7039301,22.1463947 19.8925241,21.8790613 20.1754152,21.8345057 C20.4583062,21.7899502 20.7411972,21.9681724 20.7883457,22.2355059 L22.7214344,30.7456205 L24.088741,29.854509 L24.3244836,26.82473 C24.3244836,26.6465077 24.4187806,26.512841 24.5602261,26.4237298 L26.3047208,25.4880628 C26.3518693,25.4880628 26.3518693,25.4435072 26.3990178,25.3989516 C26.3990178,25.3989516 26.3990178,25.3543961 26.3990178,25.3543961 L26.3518693,25.3098405 C26.2575723,25.2207293 26.1161268,25.1316182 26.0689782,25.1761738 L25.2203052,25.6217295 C25.1260082,25.7108407 24.9845626,25.7108407 24.8902656,25.7108407 C24.6073746,25.6662851 24.4187806,25.4435072 24.4659291,25.1761738 L24.7488201,22.5473949 C24.7488201,22.4137282 24.8431171,22.2800615 24.9845626,22.1909503 L26.7290573,21.2107277 C26.7290573,21.1661721 26.7762058,21.1661721 26.7762058,21.1216165 C26.7762058,21.077061 26.7762058,20.9879498 26.7290573,20.9433942 L26.6819088,20.8988387 C26.6347603,20.7651719 26.5404633,20.6760608 26.3990178,20.6760608 L25.5503447,21.1216165 C25.3146022,21.2552833 24.9845626,21.1661721 24.8431171,20.9433942 C24.7016716,20.7206164 24.7959686,20.4087274 25.0317111,20.2750606 L25.8803842,19.8295049 C26.2104238,19.6512826 26.5876118,19.6512826 26.9176513,19.8295049 C27.2005424,19.9631716 27.4362849,20.1413939 27.5777304,20.4087274 Z M34.2728181,10.5173899 C34.6028576,11.0520568 34.5085606,11.9877239 31.2553138,14.4382804 C28.5207005,16.4432813 25.5974932,18.2700598 22.5799889,19.8740605 C19.3267421,21.6562834 15.9320497,23.1711729 12.4430604,24.418729 L11.7358328,27.9831749 C11.6886843,28.2059528 11.5000903,28.3841751 11.2643478,28.3841751 L10.2270806,28.4732862 L10.1799321,28.4732862 C9.94418962,28.5178418 9.7084471,28.3396195 9.66129859,28.1168417 L8.765477,24.2850623 L5.74797269,21.6117279 C5.55937868,21.4780611 5.55937868,21.1661721 5.70082419,20.9879498 L6.31375475,20.1859495 C6.40805176,20.0077272 6.64379429,19.918616 6.87953681,20.0077272 L10.3685262,21.1661721 C12.3959119,19.606727 14.5647431,18.1809487 16.7807228,16.888837 L8.67117999,9.98272304 C8.62403149,9.98272304 8.57688298,9.89361189 8.52973448,9.84905632 C8.38828896,9.58172288 8.52973448,9.31438943 8.765477,9.18072271 L11.1700507,8.06683336 C11.3114963,7.97772221 11.5000903,7.97772221 11.6415358,8.06683336 L14.5175946,9.40350058 L16.0263467,8.60150025 C16.2620893,8.46783353 16.5921288,8.42327795 16.8750198,8.46783353 C17.1579108,8.5123891 17.4408019,8.6906114 17.5822474,8.95794484 L17.6293959,9.00250041 C17.7708414,9.26983386 17.8179899,9.5371673 17.7708414,9.84905632 C17.7236929,10.1163898 17.5350989,10.3837232 17.2522079,10.5619455 L18.6195145,11.1857235 L20.1282666,10.3837232 C20.4583062,10.2055009 20.7883457,10.2055009 21.1183852,10.3391676 C21.4484248,10.4728344 21.6841673,10.6510567 21.8256128,10.9183901 L21.8727613,10.9629457 C22.0142068,11.2302791 22.1085038,11.4976126 22.0613553,11.8095016 C22.0142068,12.1213906 21.8256128,12.4332796 21.4955733,12.6115019 L20.6469002,13.0570576 C20.4111577,13.1907244 20.0811181,13.1016132 19.9396726,12.8788354 C19.7982271,12.6560575 19.8925241,12.3441685 20.1282666,12.2105017 L20.9769397,11.764946 C21.0240882,11.7203904 21.0240882,11.7203904 21.0240882,11.6758349 C21.0240882,11.6312793 21.0240882,11.5421681 20.9769397,11.453057 L20.9297912,11.4085014 C20.9297912,11.3639458 20.8354942,11.3193903 20.7883457,11.2748347 C20.7411972,11.2748347 20.7411972,11.2748347 20.6940487,11.2748347 L18.949554,12.2105017 C18.8081085,12.2996129 18.6195145,12.2996129 18.478069,12.2105017 L15.9320497,11.0966124 C15.8377527,11.0520568 15.7434557,10.9629457 15.6963072,10.8738345 C15.5548617,10.6510567 15.6491587,10.3391676 15.8849012,10.2055009 L16.7335743,9.75994517 C16.7807228,9.7153896 16.7807228,9.7153896 16.7807228,9.67083402 C16.7807228,9.62627845 16.7807228,9.5371673 16.7335743,9.49261173 L16.6864258,9.44805615 C16.6864258,9.40350058 16.6392773,9.40350058 16.6392773,9.40350058 C16.5921288,9.40350058 16.5449803,9.40350058 16.4978318,9.44805615 L14.7533371,10.3837232 C14.6118916,10.4728344 14.4232976,10.4728344 14.2818521,10.3837232 L11.4057933,9.04705599 L9.89704111,9.7153896 L18.0065839,16.5323924 C18.0537324,16.576948 18.0537324,16.6215036 18.1008809,16.6660591 C18.2423265,16.888837 18.1480294,17.200726 17.9122869,17.3343928 C15.4134162,18.7156155 13.0559909,20.2750606 10.8400112,22.012728 C10.6985657,22.1018392 10.5099717,22.1463947 10.3213777,22.1018392 L6.87953681,20.9433942 L6.7380913,21.1216165 L9.56700158,23.6167287 C9.61415009,23.7058398 9.7084471,23.794951 9.7084471,23.8840621 L10.5571202,27.448508 L10.7457142,27.448508 L11.4529418,23.9731733 C11.5000903,23.794951 11.6415358,23.6612843 11.8301298,23.6167287 C15.3662677,22.4137282 18.76096,20.8988387 22.0142068,19.0720601 C29.5579676,14.9729473 33.2826995,11.7203904 33.329848,10.9629457 C33.046957,10.6510567 30.4537892,10.6510567 22.4385434,15.0175029 C22.2028009,15.1511696 21.8727613,15.0620585 21.7313158,14.8392806 C21.5898703,14.6165027 21.6841673,14.3046137 21.9199098,14.170947 L23.0986224,13.5026134 C23.1929195,13.4580578 23.240068,13.4135022 23.334365,13.4135022 C29.7465616,10.0718342 33.424145,9.09161156 34.2728181,10.5173899 Z" id="Combined-Shape" fill="#FFFFFF" opacity="0.95"></path>
                        </g>
                        <g id="bkgrnd/1-avion" opacity="0.88" transform="translate(35.637697, 337.586688) rotate(-20.000000) translate(-35.637697, -337.586688) translate(8.137697, 310.086688)">
                            <path d="M37.9193793,28.0620001 C38.1138669,28.4295836 38.1786961,28.858431 38.1138669,29.2260145 C38.0490377,29.6548619 37.7248917,30.0224454 37.3359166,30.267501 L35.2613823,31.3702515 L35.0668948,33.3306967 C35.4558699,33.146905 35.9745035,33.0856411 36.3634786,33.2694328 C36.817283,33.4532246 37.141429,33.6982802 37.3359166,34.0658637 L37.4007458,34.1271276 C37.4007458,34.1271276 37.4655749,34.1883915 37.4655749,34.2496555 C37.8545501,34.9848224 37.5304041,35.8425172 36.7524538,36.1488368 L34.6779196,37.2515873 L34.3537736,41.4175334 C34.3537736,41.6013252 34.2241152,41.7851169 34.0296277,41.9076447 L30.9826555,43.86809 C30.9178263,43.9293539 30.788168,43.9906178 30.7233388,43.9906178 C30.3343636,44.0518817 29.9453884,43.8068261 29.8805592,43.4392426 L27.1577331,30.8188763 C27.0929039,30.4512928 27.3522207,30.0837093 27.7411958,30.0224454 C28.130171,29.9611815 28.5191462,30.2062371 28.5839754,30.5738206 L31.2419723,42.2752282 L33.1220189,41.0499499 L33.4461649,36.8840038 C33.4461649,36.6389481 33.5758233,36.4551564 33.7703109,36.3326285 L36.1689911,35.0460863 C36.2338203,35.0460863 36.2338203,34.9848224 36.2986495,34.9235585 C36.2986495,34.9235585 36.2986495,34.8622946 36.2986495,34.8622946 L36.2338203,34.8010307 C36.1041619,34.6785029 35.9096743,34.555975 35.8448451,34.6172389 L34.6779196,35.2298781 C34.5482612,35.3524059 34.3537736,35.3524059 34.2241152,35.3524059 C33.8351401,35.291142 33.5758233,34.9848224 33.6406525,34.6172389 L34.0296277,31.002668 C34.0296277,30.8188763 34.159286,30.6350845 34.3537736,30.5125567 L36.7524538,29.1647506 C36.7524538,29.1034867 36.817283,29.1034867 36.817283,29.0422227 C36.817283,28.9809588 36.817283,28.858431 36.7524538,28.7971671 L36.6876246,28.7359032 C36.6227954,28.5521114 36.493137,28.4295836 36.2986495,28.4295836 L35.131724,29.0422227 C34.807578,29.2260145 34.3537736,29.1034867 34.159286,28.7971671 C33.9647985,28.4908475 34.0944569,28.0620001 34.4186028,27.8782084 L35.5855283,27.2655692 C36.0393327,27.0205136 36.5579662,27.0205136 37.0117706,27.2655692 C37.4007458,27.449361 37.7248917,27.6944166 37.9193793,28.0620001 Z M47.1251249,14.4614112 C47.5789292,15.1965781 47.4492708,16.4831203 42.9760564,19.8526356 C39.2159632,22.6095117 35.1965532,25.1213322 31.0474847,27.3268331 C26.5742703,29.7773897 21.9065684,31.8603628 17.109208,33.5757524 L16.1367701,38.4768655 C16.0719409,38.7831851 15.8126241,39.0282408 15.4884782,39.0282408 L14.0622359,39.1507686 L13.9974067,39.1507686 C13.6732607,39.2120325 13.3491148,38.9669768 13.2842856,38.6606573 L12.0525309,33.3919607 L7.90346246,29.7161258 C7.64414568,29.5323341 7.64414568,29.1034867 7.83863326,28.858431 L8.68141278,27.7556805 C8.81107117,27.5106249 9.13521714,27.3880971 9.45936311,27.5106249 L14.2567235,29.1034867 C17.0443788,26.9592497 20.0265217,24.9988044 23.0734939,23.2221509 L11.9228725,13.7262442 C11.8580433,13.7262442 11.7932141,13.6037164 11.7283849,13.5424524 C11.5338973,13.174869 11.7283849,12.8072855 12.0525309,12.6234937 L15.3588198,11.0918959 C15.5533074,10.969368 15.8126241,10.969368 16.0071117,11.0918959 L19.9616925,12.9298133 L22.0362268,11.8270628 C22.3603727,11.6432711 22.8141771,11.5820072 23.2031523,11.6432711 C23.5921274,11.704535 23.9811026,11.9495907 24.1755902,12.3171742 L24.2404194,12.3784381 C24.4349069,12.7460216 24.4997361,13.113605 24.4349069,13.5424524 C24.3700777,13.9100359 24.110761,14.2776194 23.7217858,14.5226751 L25.6018324,15.3803699 L27.6763666,14.2776194 C28.130171,14.0325638 28.5839754,14.0325638 29.0377797,14.2163555 C29.4915841,14.4001472 29.81573,14.6452029 30.0102176,15.0127864 L30.0750468,15.0740503 C30.2695344,15.4416338 30.3991928,15.8092173 30.3343636,16.2380647 C30.2695344,16.6669121 30.0102176,17.0957595 29.5564133,17.3408151 L28.3894878,17.9534543 C28.0653418,18.137246 27.6115374,18.0147182 27.4170499,17.7083986 C27.2225623,17.402079 27.3522207,16.9732316 27.6763666,16.7894399 L28.8432921,16.1768008 C28.9081213,16.1155368 28.9081213,16.1155368 28.9081213,16.0542729 C28.9081213,15.993009 28.9081213,15.8704812 28.8432921,15.7479534 L28.7784629,15.6866894 C28.7784629,15.6254255 28.6488046,15.5641616 28.5839754,15.5028977 C28.5191462,15.5028977 28.5191462,15.5028977 28.454317,15.5028977 L26.0556368,16.7894399 C25.8611492,16.9119677 25.6018324,16.9119677 25.4073449,16.7894399 L21.9065684,15.257842 C21.77691,15.1965781 21.6472516,15.0740503 21.5824224,14.9515225 C21.3879348,14.6452029 21.5175932,14.2163555 21.8417392,14.0325638 L23.0086647,13.4199246 C23.0734939,13.3586607 23.0734939,13.3586607 23.0734939,13.2973968 C23.0734939,13.2361329 23.0734939,13.113605 23.0086647,13.0523411 L22.9438355,12.9910772 C22.9438355,12.9298133 22.8790063,12.9298133 22.8790063,12.9298133 C22.8141771,12.9298133 22.7493479,12.9298133 22.6845187,12.9910772 L20.2858385,14.2776194 C20.0913509,14.4001472 19.8320342,14.4001472 19.6375466,14.2776194 L15.6829657,12.439702 L13.6084315,13.3586607 L24.7590529,22.7320396 C24.8238821,22.7933035 24.8238821,22.8545674 24.8887113,22.9158313 C25.0831989,23.2221509 24.9535405,23.6509983 24.6293945,23.83479 C21.1934472,25.7339714 17.9519875,27.8782084 14.9050154,30.267501 C14.7105278,30.3900289 14.4512111,30.4512928 14.1918943,30.3900289 L9.45936311,28.7971671 L9.26487553,29.0422227 L13.1546272,32.4730019 C13.2194564,32.5955298 13.3491148,32.7180576 13.3491148,32.8405854 L14.5160402,37.7416986 L14.775357,37.7416986 L15.7477949,32.9631133 C15.8126241,32.7180576 16.0071117,32.5342659 16.2664285,32.4730019 C21.128618,30.8188763 25.79632,28.7359032 30.2695344,26.2240827 C40.6422055,20.5878026 45.7637118,16.1155368 45.828541,15.0740503 C45.4395658,14.6452029 41.8739601,14.6452029 30.8529972,20.6490665 C30.5288512,20.8328582 30.0750468,20.7103304 29.8805592,20.4040108 C29.6860717,20.0976913 29.81573,19.6688439 30.139876,19.4850521 L31.7606059,18.5660934 C31.8902643,18.5048295 31.9550934,18.4435656 32.0847518,18.4435656 C40.9015222,13.848772 45.9581994,12.5009659 47.1251249,14.4614112 Z" id="Combined-Shape" fill="#FFFFFF" opacity="0.95"></path>
                        </g>
                        <g id="bkgrnd/2-ski" opacity="0.6" transform="translate(183.250752, 289.469554) rotate(-51.000000) translate(-183.250752, -289.469554) translate(153.750752, 259.969554)">
                            <path d="M48.8567964,11.8086059 C47.9589164,10.4767783 46.1631563,9.56871401 44.0082442,9.44763877 C43.1702229,9.38710115 42.2723428,9.68978925 41.6737561,10.2346278 C40.2371481,11.5664554 40.0575721,14.169573 40.0575721,14.4722611 C39.9977134,15.0170997 39.7582787,15.8646263 39.4589854,16.0462392 C39.3392681,16.1067768 39.2195507,16.0462392 39.0399747,15.9857016 C37.4237907,15.0170997 30.8991958,17.6202173 27.1879583,21.1919368 C26.9485236,21.4340873 26.8886649,21.8578506 27.1879583,22.1000011 C27.4872516,22.3421515 27.8464036,22.4026892 28.0858383,22.1000011 C31.9766518,18.4072063 37.6632253,16.7726906 38.441388,17.0753787 C38.9202574,17.4386044 39.5787027,17.4386044 40.1174307,17.196454 C41.1948868,16.6516154 41.3744628,14.8960244 41.4343215,14.5933364 C41.4343215,14.5933364 41.4343215,14.5933364 41.4343215,14.5327987 C41.4343215,13.9274226 41.6737561,12.0507564 42.6314948,11.2032297 C42.9906469,10.840004 43.5293749,10.7189288 44.0082442,10.7189288 C45.7441456,10.840004 47.1807537,11.5059178 47.8990577,12.4745197 C48.4377857,13.382584 48.5575031,14.4722611 48.1384924,15.440863 C47.5997643,17.0753787 46.223015,18.2255935 44.5469722,18.4677439 C44.3075376,18.5282816 44.0082442,18.4072063 43.8286682,18.2255935 C43.1702229,17.6202173 42.0329081,17.9229054 41.3146041,18.5888192 C40.6561588,19.0125825 40.4765828,19.9206468 40.8955934,20.5865606 C40.9554521,20.6470982 40.9554521,20.6470982 41.0153108,20.7076358 C41.0153108,20.7681735 41.0153108,20.7681735 41.0751694,20.8287111 C42.0329081,22.3421515 42.5117775,24.1582801 42.4519188,25.9744087 C42.4519188,27.0640858 42.4519188,27.8510748 42.4519188,28.3353758 C42.4519188,28.8196767 42.4519188,29.3645153 42.9307882,29.4855905 C43.8885269,30.3936548 45.6244283,32.3308586 46.1032976,33.9653743 L33.9519879,27.3062363 C35.0294439,26.5192472 36.1667586,25.7927958 37.363932,25.126882 C37.4237907,26.0349463 37.723084,26.9430106 38.1420947,27.7905372 C38.3216707,28.0932253 38.6808227,28.2143006 39.0399747,28.0932253 C39.3392681,27.9116125 39.4589854,27.5483867 39.3392681,27.185161 C38.8603987,26.2165591 38.6808227,25.1874196 38.6808227,24.0977425 C38.7406814,23.7345168 38.441388,23.4318287 38.082236,23.3712911 C37.9625187,23.3712911 37.8428013,23.3712911 37.723084,23.4318287 C35.9871826,24.339893 34.3111399,25.3690325 32.7548145,26.5797848 L19.825342,19.3152706 C19.46619,19.1941954 19.107038,19.3758082 18.9873207,19.7390339 C18.927462,19.9811844 18.9873207,20.2838725 19.1668967,20.4654854 L24.6140355,23.5529039 C24.3746008,23.855592 24.1950248,24.1582801 23.9555902,24.4609682 L23.8358728,24.5820434 C21.8006781,27.8510748 27.606969,33.05731 29.8217397,34.8734386 C28.325273,36.2052662 26.8288063,38.9899967 26.5893716,39.3532224 C26.4097956,39.6559105 26.5295129,40.0796738 26.8288063,40.2612867 C27.1280996,40.4428995 27.5471103,40.3218243 27.7266863,40.0191362 C28.5647077,38.5056957 30.1808917,35.9631157 31.1386304,35.5393524 C31.4977824,35.4182772 31.6174998,34.9945138 31.4977824,34.6918257 C31.4379238,34.5707505 31.3780651,34.5102129 31.2583478,34.3891377 C28.2654143,32.0281705 23.7760142,27.3667739 25.0330462,25.3084949 L25.1527635,25.1874196 C25.3323396,24.8241939 25.5717742,24.5215058 25.8710676,24.2188177 L31.9766518,27.669462 C31.2583478,29.3645153 33.4731185,31.4227943 35.0893026,32.9362348 C35.4484546,33.2994605 35.8076066,33.6626862 36.1068999,33.9048367 C36.3463346,34.1469872 36.5259106,34.4496753 36.5259106,34.812901 C36.4061933,35.4182772 36.1068999,35.9025781 35.6280306,36.3263414 L28.2654143,42.9854795 L11.5049871,33.8442991 C11.145835,33.7232238 10.786683,33.8442991 10.6669657,34.2075248 C10.5472484,34.5102129 10.6669657,34.8734386 10.9064004,35.0550515 L38.9202574,50.371069 L38.980116,50.371069 C39.5787027,50.6132194 40.2371481,50.7342947 40.8955934,50.7342947 C41.8533321,50.7948323 42.8110708,50.371069 43.4096575,49.5840799 C43.6490922,49.2813918 43.5892335,48.8576285 43.2899402,48.6760157 C42.9906469,48.4944028 42.5716362,48.4944028 42.3920602,48.7970909 C41.4941801,49.886768 39.6984201,49.2813918 39.4589854,49.1603166 L29.4625877,43.7119309 L36.4061933,37.2949433 C37.1244973,36.6895672 37.6033667,35.8420405 37.723084,34.8734386 C37.723084,34.1469872 37.4836493,33.4810734 36.9449213,32.9967724 C36.645628,32.6940843 36.2864759,32.3308586 35.8674653,31.9676329 C34.7301506,30.8779558 32.9343905,29.2434401 33.0541078,28.3353758 L46.043439,35.59989 C46.1631563,35.6604276 46.223015,35.6604276 46.3427323,35.6604276 L46.4624496,35.6604276 L46.582167,35.6604276 C46.941319,35.6604276 47.1807537,35.4182772 47.2406123,35.0550515 C47.3603297,33.7837615 46.761743,32.2097834 45.3849936,30.4541924 C44.8462656,29.727741 44.1878202,29.0618272 43.5293749,28.456451 C43.5293749,28.1537629 43.5293749,27.4273115 43.5293749,25.9744087 C43.5892335,23.855592 43.0505055,21.797313 41.8533321,20.041722 C41.8533321,20.041722 41.7934735,19.9811844 41.7934735,19.9811844 C41.7934735,19.9811844 41.7934735,19.9206468 41.7934735,19.9206468 C41.8533321,19.7390339 42.0329081,19.6179587 42.1526255,19.4968835 C42.3322015,19.3758082 42.5117775,19.3152706 42.7512122,19.3152706 C43.2300815,19.7390339 43.8885269,19.9206468 44.5469722,19.8601092 C46.7018843,19.5574211 48.4976444,18.0439806 49.1560897,15.925164 C49.8145351,14.5933364 49.6349591,13.0193583 48.8567964,11.8086059 Z" id="Shape" fill="#FFFFFF"></path>
                        </g>
                        <g id="bkgrnd/2-ski" opacity="0.97" transform="translate(906.939118, 166.591988) rotate(-316.000000) translate(-906.939118, -166.591988) translate(881.939118, 141.591988)">
                            <path d="M41.4040647,10.0072931 C40.6431495,8.87862567 39.1213189,8.10907967 37.2951222,8.00647353 C36.5849346,7.95517047 35.8240193,8.2116858 35.3167425,8.6734134 C34.099278,9.80208087 33.947095,12.0081127 33.947095,12.2646281 C33.8963673,12.7263557 33.6934566,13.4445986 33.4398181,13.5985078 C33.3383628,13.6498109 33.2369074,13.5985078 33.0847243,13.5472047 C31.7150768,12.7263557 26.1857591,14.9323875 23.0406426,17.9592685 C22.8377319,18.1644807 22.7870042,18.5236022 23.0406426,18.7288145 C23.294281,18.9340267 23.5986472,18.9853298 23.8015579,18.7288145 C27.0988574,15.5993274 31.9179876,14.2141446 32.5774475,14.4706599 C32.983269,14.7784783 33.5412735,14.7784783 33.9978227,14.5732661 C34.910921,14.1115385 35.0631041,12.6237495 35.1138317,12.3672342 C35.1138317,12.3672342 35.1138317,12.3672342 35.1138317,12.3159311 C35.1138317,11.8029005 35.3167425,10.2125054 36.1283855,9.49426247 C36.4327516,9.18644407 36.8893007,9.08383793 37.2951222,9.08383793 C38.7662251,9.18644407 39.9836895,9.7507778 40.5924218,10.5716269 C41.0489709,11.3411729 41.1504263,12.2646281 40.7953325,13.0854771 C40.3387833,14.4706599 39.1720466,15.4454182 37.7516714,15.6506305 C37.5487606,15.7019335 37.2951222,15.5993274 37.1429392,15.4454182 C36.5849346,14.9323875 35.6211086,15.1889029 35.0123764,15.7532366 C34.4543718,16.1123581 34.3021888,16.8819041 34.6572826,17.4462378 C34.7080103,17.4975409 34.7080103,17.4975409 34.7587379,17.5488439 C34.7587379,17.600147 34.7587379,17.600147 34.8094656,17.6514501 C35.6211086,18.9340267 36.0269301,20.4731187 35.9762024,22.0122107 C35.9762024,22.9356659 35.9762024,23.6026058 35.9762024,24.0130303 C35.9762024,24.4234549 35.9762024,24.8851825 36.3820239,24.9877886 C37.1936668,25.7573346 38.6647697,27.3990327 39.0705912,28.7842155 L28.7728711,23.1408782 C29.6859694,22.4739383 30.6497954,21.8583015 31.6643491,21.2939678 C31.7150768,22.0635138 31.9687152,22.8330598 32.323809,23.5513027 C32.4759921,23.8078181 32.7803582,23.9104242 33.0847243,23.8078181 C33.3383628,23.6539089 33.4398181,23.3460905 33.3383628,23.0382721 C32.9325413,22.217423 32.7803582,21.3452709 32.7803582,20.4218157 C32.8310859,20.1139973 32.5774475,19.8574819 32.2730814,19.8061789 C32.171626,19.8061789 32.0701706,19.8061789 31.9687152,19.8574819 C30.4976124,20.6270279 29.0772372,21.4991801 27.7583174,22.5252414 L16.8011373,16.3688734 C16.4967712,16.2662673 16.1924051,16.4201765 16.0909497,16.7279949 C16.040222,16.9332071 16.0909497,17.1897225 16.2431328,17.3436317 L20.8593521,19.9600881 C20.6564414,20.2166034 20.5042583,20.4731187 20.3013476,20.7296341 L20.1998922,20.8322402 C18.4751509,23.6026058 23.3957364,28.0146695 25.2726608,29.5537615 C24.0044686,30.682429 22.7362765,33.0423701 22.5333658,33.3501885 C22.3811827,33.6067038 22.4826381,33.9658253 22.7362765,34.1197345 C22.9899149,34.2736437 23.3450087,34.1710375 23.4971918,33.9145222 C24.2073794,32.6319455 25.5770269,30.4772167 26.3886699,30.1180953 C26.693036,30.0154891 26.7944913,29.6563677 26.693036,29.3998523 C26.6423083,29.2972462 26.5915806,29.2459431 26.4901252,29.143337 C23.953741,27.1425174 20.1491645,23.1921813 21.2144459,21.447877 L21.3159013,21.3452709 C21.4680844,21.0374525 21.6709951,20.7809371 21.9246335,20.5244218 L27.0988574,23.4486966 C26.4901252,24.8851825 28.3670496,26.6294867 29.7366971,27.9120634 C30.0410632,28.2198818 30.3454293,28.5277002 30.5990677,28.7329125 C30.8019785,28.9381247 30.9541615,29.1946401 30.9541615,29.5024585 C30.8527062,30.0154891 30.5990677,30.4259137 30.1932463,30.7850351 L23.953741,36.4283725 L9.74998903,28.6816094 C9.44562292,28.5790033 9.1412568,28.6816094 9.03980143,28.9894278 C8.93834606,29.2459431 9.03980143,29.5537615 9.24271218,29.7076707 L32.983269,42.6873466 L33.0339966,42.6873466 C33.5412735,42.8925589 34.099278,42.995165 34.6572826,42.995165 C35.4689255,43.0464681 36.2805685,42.6873466 36.7878454,42.0204067 C36.9907561,41.7638914 36.9400284,41.4047699 36.68639,41.2508607 C36.4327516,41.0969515 36.0776578,41.0969515 35.9254747,41.3534669 C35.1645594,42.2769221 33.6427289,41.7638914 33.4398181,41.6612853 L24.9682947,37.0440093 L30.8527062,31.6058842 C31.4614384,31.0928535 31.8672599,30.3746106 31.9687152,29.5537615 C31.9687152,28.9381247 31.7658045,28.373791 31.3092553,27.9633665 C31.0556169,27.7068511 30.7512508,27.3990327 30.396157,27.0912143 C29.432331,26.1677591 27.9105004,24.7825763 28.0119558,24.0130303 L39.0198635,30.1693983 C39.1213189,30.2207014 39.1720466,30.2207014 39.273502,30.2207014 L39.3749573,30.2207014 L39.4764127,30.2207014 C39.7807788,30.2207014 39.9836895,30.0154891 40.0344172,29.7076707 C40.1358726,28.6303063 39.6285958,27.2964266 38.461859,25.8086377 C38.0053098,25.1930009 37.4473053,24.6286671 36.8893007,24.1156365 C36.8893007,23.8591211 36.8893007,23.2434843 36.8893007,22.0122107 C36.9400284,20.2166034 36.4834793,18.4722991 35.4689255,16.9845102 C35.4689255,16.9845102 35.4181979,16.9332071 35.4181979,16.9332071 C35.4181979,16.9332071 35.4181979,16.8819041 35.4181979,16.8819041 C35.4689255,16.7279949 35.6211086,16.6253887 35.722564,16.5227826 C35.874747,16.4201765 36.0269301,16.3688734 36.2298408,16.3688734 C36.6356623,16.7279949 37.1936668,16.8819041 37.7516714,16.830601 C39.5778681,16.5740857 41.0996986,15.291509 41.6577032,13.4959017 C42.2157077,12.3672342 42.0635247,11.0333545 41.4040647,10.0072931 Z" id="Shape" fill="#FFFFFF"></path>
                        </g>
                        <g id="bkgrnd/2-ski" opacity="0.98" transform="translate(37.000000, 39.000000) rotate(-17.000000) translate(-37.000000, -39.000000) translate(14.000000, 16.000000)">
                            <path d="M38.0917396,9.20670968 C37.3916975,8.16833561 35.9916134,7.46035329 34.3115124,7.36595565 C33.6581399,7.31875683 32.9580978,7.55475094 32.4914031,7.97954033 C31.3713358,9.0179144 31.2313274,11.0474637 31.2313274,11.2834578 C31.1846579,11.7082472 30.99798,12.3690307 30.7646327,12.5106272 C30.6712937,12.557826 30.5779548,12.5106272 30.4379464,12.4634284 C29.1778707,11.7082472 24.0908984,13.7377965 21.1973912,16.522527 C21.0107133,16.7113223 20.9640439,17.041714 21.1973912,17.2305093 C21.4307386,17.4193046 21.7107554,17.4665034 21.8974333,17.2305093 C24.9309489,14.3513812 29.3645486,13.077013 29.9712517,13.3130071 C30.3446074,13.5962001 30.8579716,13.5962001 31.2779969,13.4074048 C32.1180473,12.9826154 32.2580557,11.6138496 32.3047252,11.3778555 C32.3047252,11.3778555 32.3047252,11.3778555 32.3047252,11.3306566 C32.3047252,10.8586684 32.4914031,9.39550497 33.2381146,8.73472147 C33.5181314,8.45152854 33.9381567,8.3571309 34.3115124,8.3571309 C35.6649271,8.45152854 36.7849944,8.97071558 37.345028,9.72589672 C37.7650533,10.433879 37.8583922,11.2834578 37.5317059,12.038639 C37.1116807,13.3130071 36.0382829,14.2097847 34.7315377,14.39858 C34.5448598,14.4457788 34.3115124,14.3513812 34.171504,14.2097847 C33.6581399,13.7377965 32.7714199,13.9737906 32.2113863,14.4929777 C31.6980221,14.8233694 31.5580137,15.5313517 31.8847,16.0505388 C31.9313694,16.0977376 31.9313694,16.0977376 31.9780389,16.1449364 C31.9780389,16.1921352 31.9780389,16.1921352 32.0247084,16.2393341 C32.7714199,17.4193046 33.1447757,18.8352692 33.0981062,20.2512339 C33.0981062,21.1008127 33.0981062,21.7143973 33.0981062,22.0919879 C33.0981062,22.4695785 33.0981062,22.8943679 33.471462,22.9887655 C34.2181735,23.6967478 35.5715881,25.2071101 35.9449439,26.4814783 L26.4710414,21.2896079 C27.3110919,20.6760233 28.1978118,20.1096374 29.1312012,19.5904504 C29.1778707,20.2984327 29.411218,21.006415 29.7379043,21.6671985 C29.8779127,21.9031926 30.1579296,21.9975903 30.4379464,21.9031926 C30.6712937,21.7615962 30.7646327,21.4784032 30.6712937,21.1952103 C30.297938,20.4400292 30.1579296,19.6376492 30.1579296,18.7880704 C30.204599,18.5048775 29.9712517,18.2688834 29.6912349,18.2216846 C29.5978959,18.2216846 29.504557,18.2216846 29.411218,18.2688834 C28.0578034,18.9768657 26.7510582,19.7792457 25.537652,20.7232221 L15.4570463,15.0593635 C15.1770295,14.9649659 14.8970127,15.1065623 14.8036737,15.3897553 C14.7570043,15.5785506 14.8036737,15.8145447 14.9436821,15.9561411 L19.190604,18.363281 C19.0039261,18.5992751 18.8639177,18.8352692 18.6772398,19.0712633 L18.5839009,19.165661 C16.9971389,21.7143973 21.5240775,25.773496 23.2508479,27.1894606 C22.0841111,28.2278347 20.9173744,30.3989805 20.7306965,30.6821734 C20.5906881,30.9181675 20.684027,31.2485592 20.9173744,31.3901557 C21.1507217,31.5317522 21.477408,31.4373545 21.6174164,31.2013604 C22.270789,30.0213899 23.5308647,28.0390394 24.2775763,27.7086476 C24.5575931,27.61425 24.650932,27.2838582 24.5575931,27.0478641 C24.5109236,26.9534665 24.4642541,26.9062677 24.3709152,26.81187 C22.0374417,24.971116 18.5372314,21.3368068 19.5172903,19.7320468 L19.6106292,19.6376492 C19.7506376,19.3544563 19.9373155,19.1184622 20.1706629,18.8824681 L24.9309489,21.5728009 C24.3709152,22.8943679 26.0976856,24.4991278 27.3577613,25.6790983 C27.6377781,25.9622913 27.917795,26.2454842 28.1511423,26.4342795 C28.3378202,26.6230747 28.4778286,26.8590689 28.4778286,27.1422618 C28.3844897,27.61425 28.1511423,27.9918406 27.7777866,28.3222323 L22.0374417,33.5141027 L8.96998991,26.3870806 C8.68997308,26.292683 8.40995626,26.3870806 8.31661732,26.6702736 C8.22327838,26.9062677 8.31661732,27.1894606 8.5032952,27.3310571 L30.3446074,39.2723589 L30.3912769,39.2723589 C30.8579716,39.4611541 31.3713358,39.5555518 31.8847,39.5555518 C32.6314115,39.6027506 33.378123,39.2723589 33.8448177,38.6587742 C34.0314956,38.4227801 33.9848261,38.0923883 33.7514788,37.9507919 C33.5181314,37.8091954 33.1914451,37.8091954 33.0514367,38.0451895 C32.3513947,38.8947683 30.9513106,38.4227801 30.7646327,38.3283824 L22.9708311,34.0804885 L28.3844897,29.0774135 C28.9445233,28.6054252 29.3178791,27.9446417 29.411218,27.1894606 C29.411218,26.6230747 29.2245401,26.1038877 28.8045149,25.7262971 C28.5711676,25.490303 28.2911507,25.2071101 27.9644644,24.9239172 C27.0777445,24.0743384 25.6776604,22.7999702 25.7709993,22.0919879 L35.8982744,27.7558465 C35.9916134,27.8030453 36.0382829,27.8030453 36.1316218,27.8030453 L36.2249607,27.8030453 L36.3182997,27.8030453 C36.5983165,27.8030453 36.7849944,27.61425 36.8316639,27.3310571 C36.9250028,26.3398818 36.4583081,25.1127125 35.3849103,23.7439466 C34.964885,23.1775608 34.4515209,22.6583738 33.9381567,22.1863855 C33.9381567,21.9503914 33.9381567,21.3840056 33.9381567,20.2512339 C33.9848261,18.5992751 33.5648009,16.9945152 32.6314115,15.6257494 C32.6314115,15.6257494 32.584742,15.5785506 32.584742,15.5785506 C32.584742,15.5785506 32.584742,15.5313517 32.584742,15.5313517 C32.6314115,15.3897553 32.7714199,15.2953576 32.8647589,15.20096 C33.0047673,15.1065623 33.1447757,15.0593635 33.3314536,15.0593635 C33.7048093,15.3897553 34.2181735,15.5313517 34.7315377,15.4841529 C36.4116386,15.2481588 37.8117227,14.0681883 38.3250869,12.4162295 C38.8384511,11.3778555 38.6984427,10.1506861 38.0917396,9.20670968 Z" id="Shape" fill="#FFFFFF"></path>
                        </g>
                        <g id="bkgrnd/3-monde" opacity="0.600000024" transform="translate(506.788166, 244.124962) rotate(-10.000000) translate(-506.788166, -244.124962) translate(480.788166, 218.124962)">
                            <path d="M43.3360526,26.4596113 C43.1461753,26.2156853 43.0424044,26.1166392 42.970074,26.080474 C42.845274,26.163674 42.678874,26.371674 42.554074,26.538074 C42.179674,26.995674 41.722074,27.578074 40.973274,27.744474 C40.848474,27.827674 40.640474,27.869274 40.432474,27.869274 C39.933274,27.869274 39.434074,27.702874 39.018074,27.411674 C37.520474,26.371674 37.104474,23.958874 37.021274,23.501274 C36.896474,22.627674 36.938074,21.670874 36.979674,20.714074 C37.021274,19.091674 37.104474,17.427674 36.314074,16.179674 C36.147674,15.888474 35.814874,15.638874 35.523674,15.347674 C35.024474,14.931674 34.483674,14.474074 34.566874,13.808474 C34.608474,13.434074 34.899674,13.142874 35.232474,12.893274 C34.858074,12.685274 34.442074,12.560474 34.026074,12.435674 C32.861274,12.102874 31.446874,11.686874 31.530074,9.44047399 C31.530074,9.43106068 31.530307,9.42168066 31.5307682,9.41233956 C29.7676033,8.81039776 27.8782034,8.48367399 25.914074,8.48367399 C25.2557677,8.48367399 24.6058562,8.52037657 23.9662787,8.59184248 C24.2528946,9.00154825 24.4519363,9.4763151 24.624474,9.89807399 C24.790874,10.272474 24.957274,10.646874 25.123674,10.896474 C25.206874,10.979674 25.414874,11.146074 25.581274,11.270874 C25.955674,11.520474 26.413274,11.853274 26.538074,12.310874 C26.704474,12.810074 26.538074,13.142874 26.413274,13.309274 C26.038874,13.808474 25.373274,13.808474 24.915674,13.766874 L24.832474,13.766874 C23.293274,13.725274 22.794074,13.808474 21.878874,14.931674 C21.088474,15.930074 20.214874,17.136474 20.131674,18.426074 C20.131674,18.675674 19.965274,18.883674 19.715674,18.966874 C19.507674,19.050074 19.216474,19.008474 19.050074,18.842074 C18.550874,18.384474 17.802074,18.218074 17.094874,18.426074 C16.429274,18.634074 15.971674,19.091674 15.805274,19.715674 C15.638874,20.464474 15.763674,20.506074 16.595674,20.714074 C17.261274,20.922074 18.176474,21.171674 18.467674,22.211674 C18.550874,22.544474 18.592474,22.669274 18.634074,22.710874 C18.758874,22.710874 19.133274,22.627674 19.382874,22.586074 C20.464474,22.378074 21.504474,22.128474 22.710874,22.461274 C23.210074,22.586074 23.667674,22.752474 24.125274,22.960474 C24.582874,23.126874 25.040474,23.334874 25.498074,23.418074 C25.747674,23.459674 25.997274,23.501274 26.288474,23.542874 C26.995674,23.626074 27.786074,23.709274 28.451674,24.250074 C28.784474,24.541274 29.075674,24.832474 29.283674,25.123674 C29.574874,25.456474 29.824474,25.789274 30.198874,25.997274 C30.448474,26.122074 30.698074,26.246874 30.947674,26.371674 C31.530074,26.621274 32.112474,26.870874 32.570074,27.328474 C33.027674,27.786074 33.277274,28.368474 33.277274,29.075674 C33.235674,30.656474 31.904474,32.403674 31.072474,33.110874 C30.822874,33.318874 30.531674,33.485274 30.323674,33.651674 C29.907674,33.901274 29.658074,34.067674 29.574874,34.358874 L29.533274,34.483674 C29.325274,35.482074 29.117274,36.272474 28.077274,37.062874 C27.702874,37.354074 27.203674,37.562074 26.746074,37.770074 C26.246874,37.978074 25.706074,38.227674 25.456474,38.518874 C25.206874,38.810074 25.414874,39.808474 25.498074,40.390874 C25.539674,40.640474 25.581274,40.890074 25.622874,41.098074 C25.664474,41.306074 25.581274,41.514074 25.414874,41.638874 C25.539674,41.597274 25.373274,41.680474 25.248474,41.680474 C25.206874,41.680474 25.123674,41.680474 25.082074,41.638874 C22.294874,40.890074 22.419674,38.269274 22.502874,36.106074 C22.544474,35.107674 22.586074,34.150874 22.378074,33.443674 C22.170074,32.819674 21.754074,32.445274 21.296474,32.029274 C20.838874,31.613274 20.339674,31.155674 20.048474,30.490074 C19.674074,29.699674 19.632474,28.867674 19.632474,28.035674 C19.632474,27.536474 19.632474,27.078874 19.507674,26.662874 C19.341274,25.955674 19.008474,25.789274 18.342874,25.498074 C18.051674,25.373274 17.718874,25.206874 17.344474,24.998874 C16.886874,24.707674 16.470874,24.374874 16.096474,24.042074 C15.846874,23.834074 15.597274,23.584474 15.306074,23.418074 C14.848474,23.085274 14.557274,23.002074 14.016474,22.877274 C13.891674,22.835674 13.766874,22.835674 13.642074,22.794074 C12.019674,22.378074 11.645274,21.005274 11.312474,19.923674 C11.0899589,19.1819572 10.8674439,18.2933002 10.749725,17.3275672 C9.30780341,19.8636803 8.48367399,22.7946283 8.48367399,25.914074 C8.48367399,35.523674 16.304474,43.344474 25.914074,43.344474 C35.3411693,43.344474 43.0467648,35.8179171 43.3360526,26.4596113 Z M43.313893,24.875738 C42.917747,18.1683295 38.7095049,12.4676475 32.8311435,9.91566899 C32.9187663,10.76613 33.4236332,10.8982397 34.400474,11.187674 C35.190874,11.437274 36.147674,11.686874 36.854874,12.560474 C36.979674,12.726874 37.021274,12.934874 36.979674,13.101274 C36.938074,13.267674 36.813274,13.475674 36.605274,13.558874 C36.189274,13.725274 35.981274,13.891674 35.856474,13.974874 C35.981274,14.099674 36.147674,14.266074 36.314074,14.390874 C36.688474,14.682074 37.104474,15.056474 37.395674,15.514074 C38.352474,17.094874 38.310874,18.966874 38.227674,20.797274 C38.186074,21.712474 38.144474,22.586074 38.269274,23.334874 C38.435674,24.458074 38.934874,25.872474 39.725274,26.371674 C40.058074,26.579674 40.390874,26.662874 40.765274,26.538074 C41.056474,26.454874 41.347674,26.122074 41.597274,25.789274 C41.971674,25.331674 42.346074,24.790874 43.011674,24.832474 C43.1166034,24.832474 43.2173974,24.8479819 43.313893,24.875738 Z M11.9263007,15.5261682 C11.8698651,16.7193563 12.0434302,17.9664409 12.518874,19.590874 C12.851674,20.797274 13.101274,21.338074 13.933274,21.587674 C14.058074,21.629274 14.182874,21.629274 14.266074,21.670874 C14.848474,21.837274 15.347674,21.962074 16.013274,22.419674 C16.304474,22.627674 16.595674,22.877274 16.845274,23.126874 C17.219674,23.459674 17.552474,23.750874 17.926874,23.958874 C18.176474,24.125274 18.467674,24.250074 18.758874,24.374874 C19.507674,24.707674 20.381274,25.082074 20.672474,26.454874 C20.797274,26.995674 20.797274,27.536474 20.797274,28.077274 C20.797274,28.784474 20.838874,29.450074 21.088474,29.990874 C21.296474,30.448474 21.670874,30.781274 22.045274,31.114074 C22.586074,31.613274 23.210074,32.154074 23.501274,33.110874 C23.792474,34.026074 23.750874,35.149274 23.709274,36.230874 C23.626074,37.936474 23.667674,39.184474 24.333274,39.891674 C24.208474,39.101274 24.166874,38.227674 24.624474,37.645274 C25.082074,37.062874 25.747674,36.771674 26.413274,36.522074 C26.829274,36.355674 27.203674,36.189274 27.453274,35.981274 C28.118874,35.482074 28.243674,35.024474 28.410074,34.109274 L28.451674,33.984474 C28.659674,33.152474 29.283674,32.778074 29.782874,32.486874 C29.990874,32.362074 30.198874,32.237274 30.365274,32.112474 C31.072474,31.488474 32.112474,30.032474 32.112474,28.992474 C32.112474,28.659674 32.029274,28.410074 31.821274,28.202074 C31.488474,27.910874 31.030874,27.702874 30.531674,27.494874 C30.240474,27.370074 29.949274,27.245274 29.658074,27.078874 C29.075674,26.746074 28.701274,26.288474 28.368474,25.914074 C28.160474,25.664474 27.952474,25.414874 27.702874,25.206874 C27.328474,24.915674 26.787674,24.874074 26.205274,24.790874 C25.872474,24.749274 25.581274,24.707674 25.248474,24.666074 C24.707674,24.541274 24.166874,24.333274 23.709274,24.166874 C23.251674,24.000474 22.835674,23.834074 22.419674,23.709274 C21.504474,23.459674 20.630874,23.667674 19.632474,23.875674 C18.426074,24.125274 17.635674,24.208474 17.219674,22.586074 C17.136474,22.294874 16.845274,22.170074 16.262874,22.003674 C15.514074,21.795674 14.099674,21.379674 14.598874,19.466074 C14.848474,18.426074 15.680474,17.594074 16.762074,17.302874 C17.552474,17.053274 18.342874,17.136474 19.050074,17.427674 C19.382874,16.179674 20.173274,15.139674 20.880474,14.224474 C22.086874,12.685274 23.002074,12.518874 24.832474,12.560474 L24.915674,12.560474 C24.957274,12.560474 25.040474,12.560474 25.123674,12.560474 C25.040474,12.477274 24.915674,12.394074 24.832474,12.352474 C24.541274,12.144474 24.250074,11.978074 24.083674,11.686874 C23.834074,11.312474 23.626074,10.854874 23.459674,10.438874 C23.085274,9.56527399 22.794074,8.98287399 22.294874,8.89967399 C22.2642246,8.89584281 22.2342808,8.8895418 22.2052052,8.8809659 C18.0249787,9.79069609 14.39922,12.2052207 11.9263007,15.5261682 Z M25.914074,44.634074 C15.597274,44.634074 7.19407399,36.230874 7.19407399,25.914074 C7.19407399,15.597274 15.597274,7.19407399 25.914074,7.19407399 C36.230874,7.19407399 44.634074,15.597274 44.634074,25.914074 C44.634074,36.230874 36.230874,44.634074 25.914074,44.634074 Z" id="Combined-Shape" fill="#FFFFFF"></path>
                        </g>
                        <g id="bkgrnd/3-monde" transform="translate(618.000000, 65.000000)">
                            <path d="M33.3354242,20.3535466 C33.1893648,20.1659113 33.109541,20.0897219 33.0539022,20.0619025 C32.9579022,20.1259025 32.8299022,20.2859025 32.7339022,20.4139025 C32.4459022,20.7659025 32.0939022,21.2139025 31.5179022,21.3419025 C31.4219022,21.4059025 31.2619022,21.4379025 31.1019022,21.4379025 C30.7179023,21.4379025 30.3339023,21.3099025 30.0139023,21.0859025 C28.8619023,20.2859025 28.5419023,18.4299026 28.4779023,18.0779026 C28.3819023,17.4059026 28.4139023,16.6699026 28.4459023,15.9339026 C28.4779023,14.6859027 28.5419023,13.4059027 27.9339023,12.4459027 C27.8059023,12.2219027 27.5499023,12.0299028 27.3259023,11.8059028 C26.9419024,11.4859028 26.5259024,11.1339028 26.5899024,10.6219028 C26.6219024,10.3339028 26.8459024,10.1099028 27.1019024,9.91790281 C26.8139024,9.75790281 26.4939024,9.66190281 26.1739024,9.56590282 C25.2779024,9.30990282 24.1899024,8.98990283 24.2539024,7.26190288 C24.2539024,7.25466187 24.2540816,7.24744647 24.2544364,7.24026101 C22.8981558,6.77722887 21.4447712,6.5259029 19.9339025,6.5259029 C19.4275131,6.5259029 18.9275812,6.55413565 18.4355985,6.60910943 C18.6560722,6.9242677 18.8091812,7.28947296 18.9419026,7.61390287 C19.0699026,7.90190286 19.1979026,8.18990285 19.3259026,8.38190285 C19.3899026,8.44590285 19.5499026,8.57390284 19.6779025,8.66990284 C19.9659025,8.86190284 20.3179025,9.11790283 20.4139025,9.46990282 C20.5419025,9.85390281 20.4139025,10.1099028 20.3179025,10.2379028 C20.0299025,10.6219028 19.5179026,10.6219028 19.1659026,10.5899028 L19.1019026,10.5899028 C17.9179026,10.5579028 17.5339026,10.6219028 16.8299026,11.4859028 C16.2219026,12.2539027 15.5499027,13.1819027 15.4859027,14.1739027 C15.4859027,14.3659027 15.3579027,14.5259027 15.1659027,14.5899027 C15.0059027,14.6539027 14.7819027,14.6219027 14.6539027,14.4939027 C14.2699027,14.1419027 13.6939027,14.0139027 13.1499027,14.1739027 C12.6379027,14.3339027 12.2859027,14.6859027 12.1579027,15.1659027 C12.0299028,15.7419027 12.1259027,15.7739027 12.7659027,15.9339026 C13.2779027,16.0939026 13.9819027,16.2859026 14.2059027,17.0859026 C14.2699027,17.3419026 14.3019027,17.4379026 14.3339027,17.4699026 C14.4299027,17.4699026 14.7179027,17.4059026 14.9099027,17.3739026 C15.7419027,17.2139026 16.5419026,17.0219026 17.4699026,17.2779026 C17.8539026,17.3739026 18.2059026,17.5019026 18.5579026,17.6619026 C18.9099026,17.7899026 19.2619026,17.9499026 19.6139026,18.0139026 C19.8059025,18.0459026 19.9979025,18.0779026 20.2219025,18.1099026 C20.7659025,18.1739026 21.3739025,18.2379026 21.8859025,18.6539026 C22.1419025,18.8779026 22.3659025,19.1019026 22.5259025,19.3259026 C22.7499025,19.5819026 22.9419025,19.8379025 23.2299025,19.9979025 C23.4219024,20.0939025 23.6139024,20.1899025 23.8059024,20.2859025 C24.2539024,20.4779025 24.7019024,20.6699025 25.0539024,21.0219025 C25.4059024,21.3739025 25.5979024,21.8219025 25.5979024,22.3659025 C25.5659024,23.5819024 24.5419024,24.9259024 23.9019024,25.4699024 C23.7099024,25.6299024 23.4859024,25.7579024 23.3259025,25.8859024 C23.0059025,26.0779024 22.8139025,26.2059024 22.7499025,26.4299024 L22.7179025,26.5259024 C22.5579025,27.2939023 22.3979025,27.9019023 21.5979025,28.5099023 C21.3099025,28.7339023 20.9259025,28.8939023 20.5739025,29.0539023 C20.1899025,29.2139023 19.7739025,29.4059023 19.5819026,29.6299023 C19.3899026,29.8539023 19.5499026,30.6219023 19.6139026,31.0699022 C19.6459025,31.2619022 19.6779025,31.4539022 19.7099025,31.6139022 C19.7419025,31.7739022 19.6779025,31.9339022 19.5499026,32.0299022 C19.6459025,31.9979022 19.5179026,32.0619022 19.4219026,32.0619022 C19.3899026,32.0619022 19.3259026,32.0619022 19.2939026,32.0299022 C17.1499026,31.4539022 17.2459026,29.4379023 17.3099026,27.7739023 C17.3419026,27.0059024 17.3739026,26.2699024 17.2139026,25.7259024 C17.0539026,25.2459024 16.7339026,24.9579024 16.3819026,24.6379024 C16.0299026,24.3179024 15.6459027,23.9659024 15.4219027,23.4539024 C15.1339027,22.8459025 15.1019027,22.2059025 15.1019027,21.5659025 C15.1019027,21.1819025 15.1019027,20.8299025 15.0059027,20.5099025 C14.8779027,19.9659025 14.6219027,19.8379025 14.1099027,19.6139026 C13.8859027,19.5179026 13.6299027,19.3899026 13.3419027,19.2299026 C12.9899027,19.0059026 12.6699027,18.7499026 12.3819027,18.4939026 C12.1899027,18.3339026 11.9979028,18.1419026 11.7739028,18.0139026 C11.4219028,17.7579026 11.1979028,17.6939026 10.7819028,17.5979026 C10.6859028,17.5659026 10.5899028,17.5659026 10.4939028,17.5339026 C9.24590283,17.2139026 8.95790283,16.1579026 8.70190284,15.3259027 C8.53073743,14.7553513 8.35957201,14.071769 8.26901899,13.3288975 C7.15984859,15.2797537 6.5259029,17.534329 6.5259029,19.9339025 C6.5259029,27.3259023 12.5419027,33.3419022 19.9339025,33.3419022 C27.1855141,33.3419022 33.1128951,27.5522432 33.3354242,20.3535466 Z M33.3183783,19.1351825 C33.0136507,13.9756377 29.7765414,9.59049781 25.2547251,7.62743749 C25.3221272,8.28163824 25.7104864,8.38326106 26.4619024,8.60590284 C27.0699024,8.79790284 27.8059023,8.98990283 28.3499023,9.66190281 C28.4459023,9.78990281 28.4779023,9.94990281 28.4459023,10.0779028 C28.4139023,10.2059028 28.3179023,10.3659028 28.1579023,10.4299028 C27.8379023,10.5579028 27.6779023,10.6859028 27.5819023,10.7499028 C27.6779023,10.8459028 27.8059023,10.9739028 27.9339023,11.0699028 C28.2219023,11.2939028 28.5419023,11.5819028 28.7659023,11.9339028 C29.5019023,13.1499027 29.4699023,14.5899027 29.4059023,15.9979026 C29.3739023,16.7019026 29.3419023,17.3739026 29.4379023,17.9499026 C29.5659023,18.8139026 29.9499023,19.9019025 30.5579023,20.2859025 C30.8139023,20.4459025 31.0699022,20.5099025 31.3579022,20.4139025 C31.5819022,20.3499025 31.8059022,20.0939025 31.9979022,19.8379025 C32.2859022,19.4859026 32.5739022,19.0699026 33.0859022,19.1019026 C33.1666171,19.1019026 33.244151,19.1138317 33.3183783,19.1351825 Z M9.17407718,11.943206 C9.13066523,12.861043 9.2641768,13.8203388 9.62990282,15.0699027 C9.88590281,15.9979026 10.0779028,16.4139026 10.7179028,16.6059026 C10.8139028,16.6379026 10.9099028,16.6379026 10.9739028,16.6699026 C11.4219028,16.7979026 11.8059028,16.8939026 12.3179027,17.2459026 C12.5419027,17.4059026 12.7659027,17.5979026 12.9579027,17.7899026 C13.2459027,18.0459026 13.5019027,18.2699026 13.7899027,18.4299026 C13.9819027,18.5579026 14.2059027,18.6539026 14.4299027,18.7499026 C15.0059027,19.0059026 15.6779027,19.2939026 15.9019026,20.3499025 C15.9979026,20.7659025 15.9979026,21.1819025 15.9979026,21.5979025 C15.9979026,22.1419025 16.0299026,22.6539025 16.2219026,23.0699025 C16.3819026,23.4219024 16.6699026,23.6779024 16.9579026,23.9339024 C17.3739026,24.3179024 17.8539026,24.7339024 18.0779026,25.4699024 C18.3019026,26.1739024 18.2699026,27.0379024 18.2379026,27.8699023 C18.1739026,29.1819023 18.2059026,30.1419023 18.7179026,30.6859023 C18.6219026,30.0779023 18.5899026,29.4059023 18.9419026,28.9579023 C19.2939026,28.5099023 19.8059025,28.2859023 20.3179025,28.0939023 C20.6379025,27.9659023 20.9259025,27.8379023 21.1179025,27.6779023 C21.6299025,27.2939023 21.7259025,26.9419024 21.8539025,26.2379024 L21.8859025,26.1419024 C22.0459025,25.5019024 22.5259025,25.2139024 22.9099025,24.9899024 C23.0699025,24.8939024 23.2299025,24.7979024 23.3579025,24.7019024 C23.9019024,24.2219024 24.7019024,23.1019025 24.7019024,22.3019025 C24.7019024,22.0459025 24.6379024,21.8539025 24.4779024,21.6939025 C24.2219024,21.4699025 23.8699024,21.3099025 23.4859024,21.1499025 C23.2619025,21.0539025 23.0379025,20.9579025 22.8139025,20.8299025 C22.3659025,20.5739025 22.0779025,20.2219025 21.8219025,19.9339025 C21.6619025,19.7419025 21.5019025,19.5499026 21.3099025,19.3899026 C21.0219025,19.1659026 20.6059025,19.1339026 20.1579025,19.0699026 C19.9019025,19.0379026 19.6779025,19.0059026 19.4219026,18.9739026 C19.0059026,18.8779026 18.5899026,18.7179026 18.2379026,18.5899026 C17.8859026,18.4619026 17.5659026,18.3339026 17.2459026,18.2379026 C16.5419026,18.0459026 15.8699026,18.2059026 15.1019027,18.3659026 C14.1739027,18.5579026 13.5659027,18.6219026 13.2459027,17.3739026 C13.1819027,17.1499026 12.9579027,17.0539026 12.5099027,16.9259026 C11.9339028,16.7659026 10.8459028,16.4459026 11.2299028,14.9739027 C11.4219028,14.1739027 12.0619028,13.5339027 12.8939027,13.3099027 C13.5019027,13.1179027 14.1099027,13.1819027 14.6539027,13.4059027 C14.9099027,12.4459027 15.5179027,11.6459028 16.0619026,10.9419028 C16.9899026,9.75790281 17.6939026,9.62990282 19.1019026,9.66190281 L19.1659026,9.66190281 C19.1979026,9.66190281 19.2619026,9.66190281 19.3259026,9.66190281 C19.2619026,9.59790282 19.1659026,9.53390282 19.1019026,9.50190282 C18.8779026,9.34190282 18.6539026,9.21390283 18.5259026,8.98990283 C18.3339026,8.70190284 18.1739026,8.34990285 18.0459026,8.02990286 C17.7579026,7.35790288 17.5339026,6.90990289 17.1499026,6.84590289 C17.1263261,6.84295583 17.1032925,6.83810889 17.0809266,6.83151205 C13.8653679,7.53130448 11.0763228,9.38863105 9.17407718,11.943206 Z M19.9339025,34.3339022 C11.9979028,34.3339022 5.53390292,27.8699023 5.53390292,19.9339025 C5.53390292,11.9979028 11.9979028,5.53390292 19.9339025,5.53390292 C27.8699023,5.53390292 34.3339022,11.9979028 34.3339022,19.9339025 C34.3339022,27.8699023 27.8699023,34.3339022 19.9339025,34.3339022 Z" id="Combined-Shape" fill="#FFFFFF"></path>
                        </g>
                        <g id="bkgrnd/3-monde" opacity="0.72" transform="translate(70.000000, 60.000000)">
                            <path d="M35.0021963,21.3712245 C34.8488339,21.1742074 34.765019,21.0942086 34.7065982,21.0649982 C34.6057982,21.1321982 34.4713982,21.3001982 34.3705982,21.4345982 C34.0681982,21.8041982 33.6985982,22.2745982 33.0937982,22.4089982 C32.9929982,22.4761982 32.8249982,22.5097982 32.6569982,22.5097982 C32.2537982,22.5097982 31.8505982,22.3753982 31.5145982,22.1401982 C30.3049982,21.3001982 29.9689982,19.3513982 29.9017982,18.9817982 C29.8009982,18.2761982 29.8345982,17.5033982 29.8681982,16.7305982 C29.9017982,15.4201982 29.9689982,14.0761982 29.3305982,13.0681982 C29.1961982,12.8329982 28.9273982,12.6313982 28.6921982,12.3961982 C28.2889982,12.0601982 27.8521982,11.6905982 27.9193982,11.1529982 C27.9529982,10.8505982 28.1881982,10.6153982 28.4569982,10.4137982 C28.1545982,10.2457982 27.8185982,10.1449982 27.4825982,10.0441982 C26.5417982,9.77539822 25.3993982,9.43939822 25.4665982,7.62499822 C25.4665982,7.61739517 25.4667864,7.60981899 25.4671589,7.60227426 C24.0430642,7.1160905 22.5170104,6.85219822 20.9305982,6.85219822 C20.3988893,6.85219822 19.8739608,6.88184261 19.3573789,6.93956508 C19.5888764,7.27048128 19.7496408,7.65394681 19.8889982,7.99459822 C20.0233982,8.29699822 20.1577982,8.59939822 20.2921982,8.80099822 C20.3593982,8.86819822 20.5273982,9.00259822 20.6617982,9.10339822 C20.9641982,9.30499822 21.3337982,9.57379822 21.4345982,9.94339822 C21.5689982,10.3465982 21.4345982,10.6153982 21.3337982,10.7497982 C21.0313982,11.1529982 20.4937982,11.1529982 20.1241982,11.1193982 L20.0569982,11.1193982 C18.8137982,11.0857982 18.4105982,11.1529982 17.6713982,12.0601982 C17.0329982,12.8665982 16.3273982,13.8409982 16.2601982,14.8825982 C16.2601982,15.0841982 16.1257982,15.2521982 15.9241982,15.3193982 C15.7561982,15.3865982 15.5209982,15.3529982 15.3865982,15.2185982 C14.9833982,14.8489982 14.3785982,14.7145982 13.8073982,14.8825982 C13.2697982,15.0505982 12.9001982,15.4201982 12.7657982,15.9241982 C12.6313982,16.5289982 12.7321982,16.5625982 13.4041982,16.7305982 C13.9417982,16.8985982 14.6809982,17.1001982 14.9161982,17.9401982 C14.9833982,18.2089982 15.0169982,18.3097982 15.0505982,18.3433982 C15.1513982,18.3433982 15.4537982,18.2761982 15.6553982,18.2425982 C16.5289982,18.0745982 17.3689982,17.8729982 18.3433982,18.1417982 C18.7465982,18.2425982 19.1161982,18.3769982 19.4857982,18.5449982 C19.8553982,18.6793982 20.2249982,18.8473982 20.5945982,18.9145982 C20.7961982,18.9481982 20.9977982,18.9817982 21.2329982,19.0153982 C21.8041982,19.0825982 22.4425982,19.1497982 22.9801982,19.5865982 C23.2489982,19.8217982 23.4841982,20.0569982 23.6521982,20.2921982 C23.8873982,20.5609982 24.0889982,20.8297982 24.3913982,20.9977982 C24.5929982,21.0985982 24.7945982,21.1993982 24.9961982,21.3001982 C25.4665982,21.5017982 25.9369982,21.7033982 26.3065982,22.0729982 C26.6761982,22.4425982 26.8777982,22.9129982 26.8777982,23.4841982 C26.8441982,24.7609982 25.7689982,26.1721982 25.0969982,26.7433982 C24.8953982,26.9113982 24.6601982,27.0457982 24.4921982,27.1801982 C24.1561982,27.3817982 23.9545982,27.5161982 23.8873982,27.7513982 L23.8537982,27.8521982 C23.6857982,28.6585982 23.5177982,29.2969982 22.6777982,29.9353982 C22.3753982,30.1705982 21.9721982,30.3385982 21.6025982,30.5065982 C21.1993982,30.6745982 20.7625982,30.8761982 20.5609982,31.1113982 C20.3593982,31.3465982 20.5273982,32.1529982 20.5945982,32.6233982 C20.6281982,32.8249982 20.6617982,33.0265982 20.6953982,33.1945982 C20.7289982,33.3625982 20.6617982,33.5305982 20.5273982,33.6313982 C20.6281982,33.5977982 20.4937982,33.6649982 20.3929982,33.6649982 C20.3593982,33.6649982 20.2921982,33.6649982 20.2585982,33.6313982 C18.0073982,33.0265982 18.1081982,30.9097982 18.1753982,29.1625982 C18.2089982,28.3561982 18.2425982,27.5833982 18.0745982,27.0121982 C17.9065982,26.5081982 17.5705982,26.2057982 17.2009982,25.8697982 C16.8313982,25.5337982 16.4281982,25.1641982 16.1929982,24.6265982 C15.8905982,23.9881982 15.8569982,23.3161982 15.8569982,22.6441982 C15.8569982,22.2409982 15.8569982,21.8713982 15.7561982,21.5353982 C15.6217982,20.9641982 15.3529982,20.8297982 14.8153982,20.5945982 C14.5801982,20.4937982 14.3113982,20.3593982 14.0089982,20.1913982 C13.6393982,19.9561982 13.3033982,19.6873982 13.0009982,19.4185982 C12.7993982,19.2505982 12.5977982,19.0489982 12.3625982,18.9145982 C11.9929982,18.6457982 11.7577982,18.5785982 11.3209982,18.4777982 C11.2201982,18.4441982 11.1193982,18.4441982 11.0185982,18.4105982 C9.70819822,18.0745982 9.40579822,16.9657982 9.13699822,16.0921982 C8.95727453,15.4931193 8.77755084,14.7753579 8.68247017,13.9953428 C7.51784122,16.0437418 6.85219822,18.4110459 6.85219822,20.9305982 C6.85219822,28.6921982 13.1689982,35.0089982 20.9305982,35.0089982 C28.5447906,35.0089982 34.7685408,28.9298561 35.0021963,21.3712245 Z M34.9842982,20.0919422 C34.6643341,14.6744199 31.2653693,10.070023 26.5174621,8.00880957 C26.5882343,8.69572038 26.9960114,8.80242435 27.7849982,9.03619822 C28.4233982,9.23779822 29.1961982,9.43939822 29.7673982,10.1449982 C29.8681982,10.2793982 29.9017982,10.4473982 29.8681982,10.5817982 C29.8345982,10.7161982 29.7337982,10.8841982 29.5657982,10.9513982 C29.2297982,11.0857982 29.0617982,11.2201982 28.9609982,11.2873982 C29.0617982,11.3881982 29.1961982,11.5225982 29.3305982,11.6233982 C29.6329982,11.8585982 29.9689982,12.1609982 30.2041982,12.5305982 C30.9769982,13.8073982 30.9433982,15.3193982 30.8761982,16.7977982 C30.8425982,17.5369982 30.8089982,18.2425982 30.9097982,18.8473982 C31.0441982,19.7545982 31.4473982,20.8969982 32.0857982,21.3001982 C32.3545982,21.4681982 32.6233982,21.5353982 32.9257982,21.4345982 C33.1609982,21.3673982 33.3961982,21.0985982 33.5977982,20.8297982 C33.9001982,20.4601982 34.2025982,20.0233982 34.7401982,20.0569982 C34.8249489,20.0569982 34.9063595,20.0695238 34.9842982,20.0919422 Z M9.6327813,12.5403667 C9.58719875,13.5040955 9.7273859,14.5113561 10.1113982,15.8233982 C10.3801982,16.7977982 10.5817982,17.2345982 11.2537982,17.4361982 C11.3545982,17.4697982 11.4553982,17.4697982 11.5225982,17.5033982 C11.9929982,17.6377982 12.3961982,17.7385982 12.9337982,18.1081982 C13.1689982,18.2761982 13.4041982,18.4777982 13.6057982,18.6793982 C13.9081982,18.9481982 14.1769982,19.1833982 14.4793982,19.3513982 C14.6809982,19.4857982 14.9161982,19.5865982 15.1513982,19.6873982 C15.7561982,19.9561982 16.4617982,20.2585982 16.6969982,21.3673982 C16.7977982,21.8041982 16.7977982,22.2409982 16.7977982,22.6777982 C16.7977982,23.2489982 16.8313982,23.7865982 17.0329982,24.2233982 C17.2009982,24.5929982 17.5033982,24.8617982 17.8057982,25.1305982 C18.2425982,25.5337982 18.7465982,25.9705982 18.9817982,26.7433982 C19.2169982,27.4825982 19.1833982,28.3897982 19.1497982,29.2633982 C19.0825982,30.6409982 19.1161982,31.6489982 19.6537982,32.2201982 C19.5529982,31.5817982 19.5193982,30.8761982 19.8889982,30.4057982 C20.2585982,29.9353982 20.7961982,29.7001982 21.3337982,29.4985982 C21.6697982,29.3641982 21.9721982,29.2297982 22.1737982,29.0617982 C22.7113982,28.6585982 22.8121982,28.2889982 22.9465982,27.5497982 L22.9801982,27.4489982 C23.1481982,26.7769982 23.6521982,26.4745982 24.0553982,26.2393982 C24.2233982,26.1385982 24.3913982,26.0377982 24.5257982,25.9369982 C25.0969982,25.4329982 25.9369982,24.2569982 25.9369982,23.4169982 C25.9369982,23.1481982 25.8697982,22.9465982 25.7017982,22.7785982 C25.4329982,22.5433982 25.0633982,22.3753982 24.6601982,22.2073982 C24.4249982,22.1065982 24.1897982,22.0057982 23.9545982,21.8713982 C23.4841982,21.6025982 23.1817982,21.2329982 22.9129982,20.9305982 C22.7449982,20.7289982 22.5769982,20.5273982 22.3753982,20.3593982 C22.0729982,20.1241982 21.6361982,20.0905982 21.1657982,20.0233982 C20.8969982,19.9897982 20.6617982,19.9561982 20.3929982,19.9225982 C19.9561982,19.8217982 19.5193982,19.6537982 19.1497982,19.5193982 C18.7801982,19.3849982 18.4441982,19.2505982 18.1081982,19.1497982 C17.3689982,18.9481982 16.6633982,19.1161982 15.8569982,19.2841982 C14.8825982,19.4857982 14.2441982,19.5529982 13.9081982,18.2425982 C13.8409982,18.0073982 13.6057982,17.9065982 13.1353982,17.7721982 C12.5305982,17.6041982 11.3881982,17.2681982 11.7913982,15.7225982 C11.9929982,14.8825982 12.6649982,14.2105982 13.5385982,13.9753982 C14.1769982,13.7737982 14.8153982,13.8409982 15.3865982,14.0761982 C15.6553982,13.0681982 16.2937982,12.2281982 16.8649982,11.4889982 C17.8393982,10.2457982 18.5785982,10.1113982 20.0569982,10.1449982 L20.1241982,10.1449982 C20.1577982,10.1449982 20.2249982,10.1449982 20.2921982,10.1449982 C20.2249982,10.0777982 20.1241982,10.0105982 20.0569982,9.97699822 C19.8217982,9.80899822 19.5865982,9.67459822 19.4521982,9.43939822 C19.2505982,9.13699822 19.0825982,8.76739822 18.9481982,8.43139822 C18.6457982,7.72579822 18.4105982,7.25539822 18.0073982,7.18819822 C17.9826429,7.18510381 17.9584576,7.18001453 17.9349734,7.17308784 C14.5586366,7.90786991 11.6301392,9.85806286 9.6327813,12.5403667 Z M20.9305982,36.0505982 C12.5977982,36.0505982 5.81059822,29.2633982 5.81059822,20.9305982 C5.81059822,12.5977982 12.5977982,5.81059822 20.9305982,5.81059822 C29.2633982,5.81059822 36.0505982,12.5977982 36.0505982,20.9305982 C36.0505982,29.2633982 29.2633982,36.0505982 20.9305982,36.0505982 Z" id="Combined-Shape" fill="#FFFFFF"></path>
                        </g>
                        <g id="bkgrnd/4-ticket" opacity="0.48999998" transform="translate(794.000000, 94.000000) rotate(-40.000000) translate(-794.000000, -94.000000) translate(774.000000, 74.000000)">
                            <path d="M32.6452283,16.1490505 L31.819391,14.1744933 C31.6945954,13.9200919 31.3884722,13.8043705 31.1206026,13.9103358 C30.8527329,14.0163011 30.7156153,14.3073619 30.8076037,14.5747414 L31.6279718,16.5492986 C31.7622827,16.8671925 31.7622827,17.22402 31.6279718,17.5419138 L25.8142962,30.8835166 C25.7909361,30.9221827 25.7432488,30.9399092 25.6994447,30.9262097 L19.5248071,28.364622 L28.8551275,19.2549756 C29.3357316,18.7824938 29.6051134,18.14358 29.604397,17.4778741 L29.604397,10.3908147 C29.5984072,9.07283254 28.5049314,8.00584432 27.1542309,7.99999952 L19.8967073,7.99999952 C19.2163701,8.00070896 18.5638255,8.2634592 18.0809592,8.73111936 L6.75987877,19.7779665 C6.2800399,20.2467651 6.2800399,21.0062197 6.75987877,21.4750183 L15.767521,30.3071594 C16.2479574,30.775375 17.0262651,30.775375 17.5067015,30.3071594 L18.660686,29.1811281 L25.2236312,31.9081517 C25.8232109,32.1563656 26.5155588,31.884225 26.7713924,31.2997746 L32.585068,17.9581718 C32.849094,17.3865278 32.8707201,16.7361938 32.6452283,16.1490505 Z M16.7847775,29.554693 C16.7634984,29.5859953 16.7275632,29.6048137 16.6890679,29.6048137 C16.6505726,29.6048137 16.6146373,29.5859953 16.5933583,29.554693 L7.50367922,20.706542 C7.45156631,20.6546641 7.45156631,20.5716375 7.50367922,20.5197596 L18.8247596,9.47291247 C19.0995009,9.20255574 19.4737014,9.05073598 19.8638926,9.05131782 L27.1214161,9.05131782 C27.8765442,9.05131782 28.4886964,9.64864172 28.4886964,10.3854781 L28.4886964,17.4672009 C28.4907591,17.8497888 28.3350576,18.2171131 28.0566358,18.4864993 L18.1575269,28.1458197 L16.7847775,29.554693 Z M24.2501276,15.8128421 C25.7603837,15.8128421 26.9846881,14.6181943 26.9846881,13.1445216 C26.9846881,11.6708488 25.7603837,10.476201 24.2501276,10.476201 C22.7398716,10.476201 21.5155671,11.6708488 21.5155671,13.1445216 C21.5155671,14.6181943 22.7398716,15.8128421 24.2501276,15.8128421 Z M24.2501276,11.5862223 C25.1562812,11.5862223 25.8908639,12.303011 25.8908639,13.1872147 C25.8908639,14.0714183 25.1562812,14.788207 24.2501276,14.788207 C23.343974,14.788207 22.6093913,14.0714183 22.6093913,13.1872147 C22.6124047,12.3050958 23.3461055,11.5915541 24.2501276,11.591559 L24.2501276,11.5862223 Z" id="Combined-Shape" fill="#FFFFFF" opacity="0.92"></path>
                        </g>
                        <g id="bkgrnd/4-ticket" opacity="0.600000024" transform="translate(268.014712, 32.014712) rotate(44.000000) translate(-268.014712, -32.014712) translate(245.514712, 9.514712)">
                            <path d="M36.7258834,18.1676826 L35.7968164,15.9463056 C35.6564214,15.660104 35.3120328,15.5299175 35.0106794,15.6491284 C34.709326,15.7683394 34.5550686,16.0957828 34.6585556,16.3965847 L35.5814698,18.6179617 C35.7325695,18.9755923 35.7325695,19.3770233 35.5814698,19.7346539 L29.0410845,34.7439577 C29.0148043,34.787457 28.9611562,34.8073994 28.9118765,34.7919874 L21.9654089,31.9102011 L32.4620198,21.6618485 C33.0026995,21.1303065 33.305754,20.4115283 33.3049481,19.6626092 L33.3049481,11.6896671 C33.2982095,10.206937 32.0680492,9.00657524 30.548511,8.99999985 L22.3837967,8.99999985 C21.6184173,9.00079796 20.8843046,9.296392 20.3410799,9.82250969 L7.60486394,22.2502132 C7.06504519,22.7776117 7.06504519,23.6319981 7.60486394,24.1593966 L17.7384619,34.0955557 C18.2789528,34.6222983 19.154549,34.6222983 19.69504,34.0955557 L20.9932726,32.8287705 L28.3765863,35.8966722 C29.0511135,36.1759128 29.830005,35.8697547 30.1178177,35.2122479 L36.658203,20.2029442 C36.9552323,19.5598446 36.9795617,18.8282189 36.7258834,18.1676826 Z M18.8828755,33.249031 C18.8589365,33.2842461 18.8185094,33.3054168 18.7752022,33.3054168 C18.731895,33.3054168 18.6914678,33.2842461 18.6675288,33.249031 L8.44163948,23.2948608 C8.38301246,23.236498 8.38301246,23.1430932 8.44163948,23.0847305 L21.1778555,10.657027 C21.4869394,10.3528756 21.907915,10.1820784 22.3468801,10.182733 L30.5115944,10.182733 C31.3611135,10.182733 32.0497848,10.8547224 32.0497848,11.6836634 L32.0497848,19.6506018 C32.0521054,20.0810133 31.8769412,20.4942531 31.5637166,20.7973126 L20.4272186,31.6640485 L18.8828755,33.249031 Z M27.2813947,17.7894481 C28.9804329,17.7894481 30.3577754,16.4454693 30.3577754,14.7875874 C30.3577754,13.1297055 28.9804329,11.7857266 27.2813947,11.7857266 C25.5823566,11.7857266 24.2050141,13.1297055 24.2050141,14.7875874 C24.2050141,16.4454693 25.5823566,17.7894481 27.2813947,17.7894481 Z M27.2813947,13.0345007 C28.3008176,13.0345007 29.1272231,13.840888 29.1272231,14.8356171 C29.1272231,15.8303463 28.3008176,16.6367336 27.2813947,16.6367336 C26.2619719,16.6367336 25.4355663,15.8303463 25.4355663,14.8356171 C25.4389564,13.8432334 26.2643698,13.0404989 27.2813947,13.0405044 L27.2813947,13.0345007 Z" id="Combined-Shape" fill="#FFFFFF" opacity="0.92"></path>
                        </g>
                        <g id="bkgrnd/4-ticket" opacity="0.600000024" transform="translate(210.000000, 134.000000)">
                            <path d="M27.6970594,13.7012738 L26.9963976,12.0260082 C26.8905177,11.8101674 26.6307949,11.7119864 26.4035273,11.8018901 C26.1762597,11.8917938 26.0599255,12.1387374 26.1379709,12.365589 L26.8339925,14.0408546 C26.9479454,14.3105641 26.9479454,14.6133058 26.8339925,14.8830152 L21.9015192,26.2023774 C21.8816999,26.2351827 21.8412408,26.2502224 21.8040762,26.2385994 L16.5653533,24.0652818 L24.4814394,16.3364213 C24.8891965,15.9355555 25.1177469,15.3934844 25.1171392,14.8286822 L25.1171392,8.81583703 C25.1120572,7.69762671 24.184324,6.7923662 23.0383545,6.78740732 L16.8808831,6.78740732 C16.3036674,6.78800923 15.7500316,7.01093336 15.3403552,7.40770837 L5.73525668,16.7801403 C5.32814892,17.1778812 5.32814892,17.8222222 5.73525668,18.2199632 L13.3775742,25.713381 C13.7851889,26.1106272 14.4455254,26.1106272 14.8531401,25.713381 L15.8322105,24.7580268 L21.4003836,27.0717044 C21.9090827,27.2822956 22.4964886,27.0514044 22.7135444,26.5555415 L27.6460178,15.2361793 C27.8700243,14.7511816 27.8883725,14.1994214 27.6970594,13.7012738 Z M14.2406411,25.0749689 C14.2225874,25.1015266 14.1920989,25.1174927 14.1594385,25.1174927 C14.1267781,25.1174927 14.0962897,25.1015266 14.078236,25.0749689 L6.36631629,17.5679679 C6.32210234,17.5239533 6.32210234,17.4535114 6.36631629,17.4094968 L15.9714149,8.03706491 C16.2045125,7.80768724 16.5219939,7.67887942 16.8530423,7.67937307 L23.0105137,7.67937307 C23.6511839,7.67937307 24.1705497,8.18615818 24.1705497,8.81130929 L24.1705497,14.8196268 C24.1722998,15.1442243 24.0401986,15.4558718 23.8039783,15.684426 L15.4053173,23.8796443 L14.2406411,25.0749689 Z M20.5744379,13.4160258 C21.8557784,13.4160258 22.8945101,12.4024556 22.8945101,11.1521534 C22.8945101,9.90185117 21.8557784,8.88828095 20.5744379,8.88828095 C19.2930975,8.88828095 18.2543658,9.90185117 18.2543658,11.1521534 C18.2543658,12.4024556 19.2930975,13.4160258 20.5744379,13.4160258 Z M20.5744379,9.83005189 C21.3432422,9.83005189 21.9664812,10.438194 21.9664812,11.1883754 C21.9664812,11.9385567 21.3432422,12.5466988 20.5744379,12.5466988 C19.8056337,12.5466988 19.1823947,11.9385567 19.1823947,11.1883754 C19.1849513,10.4399628 19.8074421,9.83457548 20.5744379,9.83457963 L20.5744379,9.83005189 Z" id="Combined-Shape" fill="#FFFFFF" opacity="0.92"></path>
                        </g>
                    </g>
                </g>
            </g>
        </g>
    </g>
</svg>