<?xml version="1.0" standalone="no"?>
<!DOCTYPE svg PUBLIC "-//W3C//DTD SVG 20010904//EN"
 "http://www.w3.org/TR/2001/REC-SVG-20010904/DTD/svg10.dtd">
<svg version="1.0" xmlns="http://www.w3.org/2000/svg"
 width="1120.000000pt" height="1120.000000pt" viewBox="0 0 1120.000000 1120.000000"
 preserveAspectRatio="xMidYMid meet">
<metadata>
Created by potrace 1.14, written by Peter Selinger 2001-2017
</metadata>
<g transform="translate(0.000000,1120.000000) scale(0.100000,-0.100000)"
fill="#000000" stroke="none">
<path d="M5378 11145 c-3 -2 -94 -10 -238 -20 -19 -1 -35 -3 -35 -5 0 -2 -44
-10 -85 -15 -19 -2 -35 -4 -35 -5 0 -1 -11 -4 -25 -5 -59 -8 -133 -22 -137
-25 -2 -2 -7 -4 -13 -5 -5 -1 -11 -3 -12 -4 -2 -2 -16 -4 -33 -6 -32 -4 -84
-19 -235 -67 -52 -16 -99 -31 -105 -32 -5 -1 -19 -7 -30 -13 -11 -6 -23 -12
-27 -12 -24 -4 -319 -130 -328 -140 -3 -3 -25 -16 -50 -29 -95 -47 -362 -211
-380 -232 -3 -4 -26 -21 -52 -38 -25 -18 -52 -38 -60 -45 -7 -7 -35 -30 -63
-52 -27 -22 -63 -51 -79 -65 -55 -46 -281 -274 -331 -334 -28 -33 -58 -68 -67
-78 -10 -10 -18 -21 -18 -25 0 -5 -12 -22 -28 -38 -30 -34 -46 -57 -125 -172
-50 -74 -82 -125 -134 -218 -39 -68 -153 -303 -153 -314 0 -6 -5 -11 -12 -11
-6 0 -9 -3 -5 -6 3 -3 -7 -36 -23 -73 -28 -65 -117 -326 -124 -366 -3 -11 -12
-51 -21 -90 -17 -72 -22 -92 -30 -135 -3 -14 -7 -36 -10 -50 -6 -30 -14 -82
-21 -135 -3 -22 -7 -56 -10 -75 -22 -167 -24 -730 -3 -730 4 0 6 -6 6 -12 -2
-18 17 -174 23 -188 1 -3 3 -18 5 -35 4 -39 38 -189 65 -285 11 -41 23 -87 26
-103 4 -15 11 -30 15 -33 5 -3 9 -13 9 -22 0 -18 58 -179 85 -236 l16 -34 106
64 c58 35 107 64 109 64 2 0 44 25 94 55 50 30 93 55 96 55 3 0 29 16 58 35
29 19 58 35 64 35 6 0 17 6 24 13 7 7 36 27 65 43 76 43 232 134 275 161 l37
23 -15 42 c-15 42 -52 174 -60 213 -2 11 -7 36 -10 55 -4 19 -9 44 -11 55 -2
11 -6 30 -9 42 -2 12 -7 48 -10 80 -3 32 -7 78 -10 103 -5 58 -5 323 1 375 16
146 22 190 25 190 1 0 4 11 5 25 2 14 6 32 8 40 4 18 30 133 32 140 0 3 4 11
8 18 5 6 6 12 3 12 -2 0 11 44 31 98 19 53 36 103 37 110 1 7 8 18 14 24 7 7
12 18 12 26 0 24 157 324 179 342 4 3 15 19 25 35 61 99 184 244 301 356 101
96 121 113 210 179 33 25 62 47 65 50 3 3 14 10 25 17 102 61 161 99 166 106
3 5 9 8 13 8 3 -1 38 15 77 35 64 32 228 102 254 108 6 2 49 15 96 29 88 28
233 62 304 71 22 3 60 8 85 12 180 25 427 18 665 -20 17 -3 91 -18 105 -21 3
-1 19 -5 35 -9 54 -14 199 -57 220 -66 11 -4 47 -18 80 -31 33 -12 65 -26 71
-31 7 -5 23 -11 35 -13 13 -3 25 -9 27 -15 2 -5 10 -10 17 -10 8 0 43 -16 77
-35 152 -86 247 -150 392 -264 79 -63 298 -297 356 -381 13 -19 27 -37 30 -40
7 -7 72 -106 109 -168 44 -74 141 -278 141 -296 0 -9 4 -16 10 -16 5 0 9 -3 9
-7 -1 -5 0 -10 1 -13 1 -3 3 -12 5 -20 2 -8 13 -41 24 -72 12 -32 23 -68 25
-80 3 -13 5 -24 7 -25 1 -2 2 -6 3 -10 61 -251 71 -336 71 -588 0 -104 -4
-219 -9 -255 -4 -36 -9 -76 -11 -90 -2 -14 -8 -47 -14 -75 -6 -27 -13 -61 -15
-75 -13 -62 -29 -126 -35 -135 -3 -5 -6 -15 -7 -20 -1 -6 -10 -36 -20 -68 -9
-31 -16 -58 -13 -60 16 -14 271 -157 279 -157 5 0 10 -4 10 -10 0 -5 4 -10 10
-10 5 0 34 -16 64 -35 30 -19 57 -35 60 -35 3 0 46 -25 97 -55 50 -30 95 -55
100 -55 5 0 9 -5 9 -12 0 -6 3 -9 6 -5 3 3 30 -10 59 -29 30 -19 59 -34 65
-34 5 0 10 -5 10 -12 0 -6 3 -8 7 -5 3 4 13 1 22 -6 9 -8 36 -25 61 -38 25
-13 48 -28 51 -32 8 -12 25 12 39 58 7 22 15 45 19 50 3 6 6 12 6 15 0 3 5 19
12 35 20 54 26 70 28 75 1 3 12 39 25 80 13 41 24 80 26 85 1 6 7 30 14 55 7
25 13 52 15 60 2 8 8 33 14 55 5 22 13 56 16 75 3 19 8 42 10 50 2 8 6 35 9
60 3 25 8 54 10 66 5 25 13 92 23 189 15 150 9 510 -12 670 -2 17 -6 52 -9 80
-3 27 -13 81 -21 120 -7 38 -16 82 -19 98 -10 45 -22 103 -32 140 -3 12 -7 29
-9 37 -2 8 -4 16 -5 18 -2 1 -4 7 -5 12 -1 6 -3 11 -4 13 -2 1 -5 13 -8 27 -2
14 -6 30 -7 35 -1 6 -7 19 -13 30 -5 11 -8 26 -6 33 3 6 -1 12 -8 12 -7 0 -10
3 -6 6 3 4 0 19 -9 35 -8 16 -14 31 -13 34 4 27 -189 459 -214 476 -5 3 -8 9
-8 13 2 7 -19 45 -49 91 -11 17 -23 37 -27 45 -6 15 -137 211 -160 240 -129
166 -198 244 -333 378 -145 143 -144 142 -269 241 -269 214 -547 372 -867 496
-100 39 -280 99 -330 110 -10 2 -34 8 -51 14 -18 5 -33 8 -33 6 0 -3 -12 0
-27 6 -14 5 -38 12 -52 14 -14 2 -37 6 -51 9 -36 9 -119 23 -185 31 -11 1 -20
3 -20 5 0 1 -20 3 -45 5 -25 2 -74 6 -110 10 -61 6 -437 14 -442 10z"/>
<path d="M3776 6354 c-20 -14 -36 -21 -36 -17 0 4 -4 4 -8 -2 -4 -5 -16 -15
-27 -21 -85 -46 -145 -80 -175 -99 -19 -12 -45 -25 -57 -29 -13 -4 -23 -11
-23 -15 0 -4 -16 -13 -35 -21 -19 -8 -35 -17 -35 -22 0 -4 -4 -8 -10 -8 -9 0
-257 -137 -350 -194 -19 -11 -38 -20 -42 -19 -3 1 -12 -4 -18 -12 -7 -8 -19
-15 -26 -15 -8 0 -14 -4 -14 -9 0 -5 -10 -11 -21 -14 -20 -5 -16 -12 40 -85
34 -44 77 -96 96 -115 19 -20 35 -38 35 -41 0 -7 192 -199 262 -262 25 -22 78
-67 119 -100 41 -32 76 -62 77 -66 2 -5 8 -8 12 -8 5 0 40 -23 77 -51 37 -28
75 -54 83 -57 8 -3 23 -13 33 -22 9 -9 30 -23 45 -31 15 -7 45 -25 67 -38 22
-14 58 -35 80 -46 127 -67 151 -79 157 -80 4 0 13 -6 20 -13 6 -6 15 -12 19
-12 4 0 24 -8 45 -17 22 -9 41 -17 44 -18 3 0 15 -6 26 -13 12 -6 24 -8 28 -5
3 3 6 0 6 -7 0 -7 3 -10 7 -7 3 4 11 3 17 -3 25 -20 431 -147 496 -155 8 -1
22 -4 30 -7 8 -3 44 -11 80 -17 36 -6 79 -14 95 -17 17 -3 48 -8 70 -9 22 -2
40 -4 40 -5 0 -1 11 -4 25 -5 177 -24 587 -25 765 -1 17 2 57 7 90 11 79 10
100 13 100 15 0 1 17 3 37 6 47 6 345 81 367 93 9 5 19 10 23 10 44 7 69 15
74 22 3 5 13 9 23 9 10 0 32 7 47 15 16 8 36 15 44 15 9 0 24 6 35 14 11 7 22
14 25 14 21 2 144 57 230 102 41 22 89 46 105 54 75 35 243 143 386 248 59 43
112 78 117 78 13 0 80 -37 104 -58 10 -8 18 -11 18 -6 0 5 4 5 8 -1 4 -5 27
-21 52 -34 25 -13 53 -31 63 -39 9 -8 17 -12 17 -8 0 4 12 -2 26 -13 15 -12
32 -21 40 -21 7 0 14 -3 16 -7 2 -5 23 -19 48 -32 25 -14 47 -27 50 -30 3 -3
23 -15 45 -27 59 -31 142 -78 209 -118 33 -20 63 -36 66 -36 9 0 182 173 257
258 38 42 76 84 86 94 9 10 17 20 17 23 0 3 8 13 18 23 9 10 28 33 42 51 14
18 31 39 38 46 6 8 12 16 12 19 0 3 12 18 26 33 48 52 48 57 -12 91 -31 18
-60 32 -65 32 -5 0 -9 4 -9 8 0 5 -16 14 -35 22 -19 8 -35 17 -35 22 0 4 -4 8
-9 8 -4 0 -46 22 -92 49 -201 118 -260 151 -268 151 -4 0 -16 9 -26 20 -9 10
-20 19 -24 18 -11 -3 -61 25 -61 34 0 4 -4 8 -8 8 -5 0 -50 24 -101 53 -51 28
-117 66 -147 82 -29 17 -59 36 -66 43 -7 7 -17 12 -23 12 -5 0 -38 18 -73 40
-34 22 -67 40 -72 40 -5 0 -15 6 -22 13 -8 6 -24 18 -37 25 -13 8 -38 22 -55
32 -17 9 -102 58 -189 109 -86 50 -163 91 -170 91 -6 0 -30 -21 -51 -46 -83
-96 -209 -211 -341 -312 -40 -31 -105 -72 -114 -72 -6 0 -11 -4 -11 -9 0 -5
-13 -14 -30 -21 -16 -7 -30 -16 -30 -21 0 -5 -5 -9 -11 -9 -7 0 -28 -10 -48
-22 -20 -13 -38 -23 -41 -24 -3 0 -45 -20 -95 -43 -119 -56 -220 -97 -265
-106 -8 -2 -15 -4 -15 -5 0 -1 -8 -3 -18 -5 -10 -2 -26 -7 -35 -11 -9 -3 -26
-8 -38 -9 -11 -2 -40 -9 -65 -16 -56 -16 -65 -18 -114 -24 -22 -3 -47 -7 -55
-10 -70 -19 -485 -28 -600 -12 -136 18 -290 50 -384 80 -27 9 -53 14 -58 11
-4 -3 -8 -1 -8 5 0 5 -15 13 -32 17 -43 10 -39 9 -68 21 -86 36 -101 42 -105
43 -3 0 -49 24 -102 52 -54 28 -108 56 -120 62 -13 6 -23 14 -23 19 0 4 -6 7
-14 7 -7 0 -19 7 -26 15 -7 9 -15 13 -17 11 -3 -2 -12 2 -21 9 -10 7 -55 42
-102 77 -124 93 -133 101 -266 234 l-122 122 -36 -24z"/>
<path d="M3797 2683 c-3 -2 -17 -6 -33 -8 -16 -3 -53 -12 -81 -21 -29 -9 -58
-17 -65 -18 -16 -3 -104 -42 -138 -61 -14 -7 -39 -21 -57 -30 -18 -9 -43 -27
-57 -40 -14 -13 -27 -21 -29 -19 -7 8 -155 -152 -195 -211 -56 -84 -120 -225
-138 -309 -5 -21 -7 -33 -19 -96 -15 -74 -7 -372 9 -399 4 -6 5 -11 1 -11 -3
0 1 -15 9 -34 8 -19 12 -37 9 -39 -2 -3 3 -19 11 -36 9 -17 17 -34 17 -38 3
-24 75 -173 87 -183 4 -3 19 -24 34 -47 32 -49 126 -146 183 -188 22 -17 42
-32 45 -35 9 -9 65 -40 120 -66 30 -14 67 -32 82 -40 15 -8 30 -14 33 -14 12
3 71 -13 83 -22 6 -6 12 -8 12 -6 0 3 32 0 71 -7 84 -15 292 -12 369 4 74 16
194 54 198 64 2 4 10 7 18 7 17 0 128 59 132 71 2 5 9 9 15 9 27 0 221 186
233 223 3 9 9 17 13 17 18 0 136 254 150 323 0 4 1 8 2 10 2 6 10 56 18 106
11 71 6 292 -8 356 -5 28 -12 60 -15 71 -16 74 -103 271 -131 294 -8 7 -15 18
-15 24 0 21 -137 162 -207 214 -92 68 -271 151 -358 167 -16 2 -41 8 -55 11
-28 8 -346 14 -353 7z m253 -464 c230 -46 376 -235 385 -494 2 -93 -12 -230
-25 -230 -1 0 -3 -8 -5 -19 -2 -10 -8 -23 -14 -29 -6 -6 -11 -17 -11 -25 0
-15 -54 -97 -85 -127 -62 -62 -193 -134 -216 -119 -5 3 -9 1 -9 -3 0 -16 -136
-22 -195 -10 -16 4 -40 9 -52 11 -12 3 -32 10 -45 17 -13 8 -25 14 -28 14 -18
3 -72 39 -106 72 -118 113 -168 256 -158 452 5 106 8 129 17 137 4 4 7 13 7
20 0 16 47 120 63 142 35 45 123 125 160 144 95 49 217 67 317 47z"/>
<path d="M7920 2687 c-3 -3 -23 -7 -45 -10 -61 -9 -173 -46 -240 -79 -163 -82
-302 -211 -390 -363 -34 -57 -86 -175 -78 -175 3 0 1 -6 -4 -12 -10 -13 -36
-111 -36 -135 0 -7 -3 -13 -6 -13 -7 0 -14 -120 -14 -230 1 -70 6 -125 18
-192 3 -16 7 -38 9 -50 6 -35 47 -151 59 -165 5 -7 7 -13 4 -13 -10 0 53 -110
99 -175 52 -71 150 -169 217 -214 62 -42 155 -91 173 -91 8 0 14 -5 14 -10 0
-6 3 -9 8 -9 4 1 9 0 12 -1 3 -1 12 -3 20 -5 8 -1 33 -8 55 -14 22 -6 42 -11
45 -11 3 -1 23 -6 45 -11 107 -27 374 -15 484 23 20 6 41 13 46 14 22 4 169
77 182 90 8 8 18 14 22 14 4 0 17 9 29 20 12 12 22 19 22 16 0 -2 27 23 59 56
102 103 198 261 169 279 -7 5 -19 9 -25 10 -16 2 -24 4 -43 12 -8 3 -62 20
-120 37 -58 17 -114 36 -125 41 -11 5 -30 11 -43 14 -13 2 -32 7 -41 10 -13 4
-25 -6 -45 -35 -85 -129 -215 -187 -391 -177 -106 6 -128 11 -204 49 -59 29
-171 122 -171 141 0 5 -11 23 -24 40 -14 18 -24 34 -23 37 0 3 -5 21 -12 40
-8 19 -15 53 -18 76 l-4 41 666 -1 c367 -1 670 1 674 4 20 14 17 251 -4 390
-9 59 -11 69 -15 73 -1 1 -4 14 -6 28 -9 54 -73 200 -117 266 -44 66 -101 131
-163 183 -34 30 -130 90 -143 90 -5 0 -11 3 -13 8 -3 8 -118 49 -156 57 -13 2
-31 6 -40 9 -9 3 -30 8 -47 12 -37 8 -318 18 -325 11z m273 -431 c69 -23 103
-42 147 -83 37 -33 82 -95 86 -118 1 -5 8 -26 16 -45 8 -19 14 -51 14 -69 l-1
-35 -418 0 c-380 -1 -417 0 -417 15 0 30 40 149 50 149 6 0 10 6 10 14 0 23
99 115 154 143 28 15 71 31 96 38 61 16 204 11 263 -9z"/>
<path d="M1479 2676 c-2 -2 -28 -7 -58 -10 -67 -8 -188 -49 -264 -89 -109 -58
-265 -201 -300 -274 -5 -13 -14 -23 -19 -23 -5 0 -7 -4 -4 -9 4 -5 2 -11 -3
-13 -11 -4 -81 -151 -81 -170 0 -7 -4 -18 -8 -23 -11 -13 -39 -123 -51 -200
-10 -62 -7 -321 3 -365 3 -14 9 -41 13 -60 3 -19 12 -50 20 -67 7 -18 11 -33
8 -33 -3 0 3 -17 14 -39 11 -21 17 -41 14 -45 -4 -3 -1 -6 5 -6 7 0 12 -8 12
-17 1 -10 16 -43 35 -73 20 -30 38 -63 41 -72 4 -10 10 -18 14 -18 5 0 16 -13
27 -29 22 -36 102 -119 139 -146 15 -11 33 -26 40 -33 7 -6 17 -12 23 -12 6 0
11 -3 11 -7 0 -5 24 -19 53 -33 28 -14 54 -27 57 -30 3 -3 10 -6 15 -7 6 -1
33 -11 61 -21 28 -11 66 -22 85 -25 19 -4 52 -10 74 -14 22 -4 94 -6 160 -6
163 2 269 30 390 106 11 6 43 35 70 64 l50 52 0 -454 0 -453 247 -1 c189 0
248 2 249 12 0 6 1 594 2 1305 1 855 -1 1292 -8 1293 -65 7 -475 2 -478 -6 -2
-5 -3 -49 -2 -97 0 -49 -2 -88 -6 -88 -4 0 -22 20 -40 44 -32 41 -102 93 -175
130 -73 36 -179 58 -305 62 -69 2 -127 2 -130 0z m276 -461 c50 -7 170 -66
210 -104 59 -56 105 -121 120 -171 1 -3 5 -12 8 -20 34 -81 43 -292 17 -395
-15 -58 -49 -137 -64 -147 -6 -4 -7 -8 -3 -8 10 0 -5 -18 -63 -78 -76 -78
-190 -129 -283 -128 -26 1 -47 -2 -47 -5 0 -13 -138 23 -196 51 -128 63 -223
197 -250 355 -14 80 -10 228 7 288 10 31 15 57 13 57 -2 0 11 30 30 68 62 120
183 211 313 236 65 12 100 13 188 1z"/>
<path d="M10207 2644 c-1 -2 -15 -5 -30 -8 -159 -29 -283 -106 -358 -224 -15
-23 -29 -37 -31 -30 -2 7 -3 66 -2 130 0 77 -3 118 -10 120 -10 3 -421 2 -468
-1 -16 -1 -17 -59 -17 -941 l0 -940 255 0 c140 0 254 3 255 8 0 4 1 230 3 502
2 346 6 503 14 523 6 15 10 27 7 27 -2 0 3 17 11 38 30 74 56 122 65 122 5 0
9 5 9 10 0 11 65 80 76 80 3 0 17 9 31 20 14 11 34 20 44 20 11 0 19 4 19 8 0
5 6 9 13 9 21 1 80 14 89 19 13 8 158 7 206 -1 28 -4 42 -3 48 6 9 15 9 483 0
497 -5 8 -222 13 -229 6z"/>
<path d="M5030 2619 c0 -9 3 -19 7 -23 4 -3 8 -12 9 -19 2 -11 93 -237 114
-282 29 -64 70 -169 70 -181 0 -8 5 -14 10 -14 6 0 9 -3 9 -7 -1 -5 0 -11 1
-15 1 -5 3 -11 5 -15 1 -5 6 -19 12 -33 6 -14 36 -86 66 -160 61 -149 74 -181
93 -225 7 -16 27 -66 44 -110 17 -44 38 -96 47 -115 8 -19 20 -46 25 -60 6
-14 16 -38 23 -55 7 -16 41 -100 75 -185 54 -137 92 -229 121 -295 5 -11 13
-32 19 -47 l10 -28 255 0 c255 0 255 0 265 23 18 41 112 282 114 292 2 6 8 21
13 35 6 14 9 28 6 33 -2 4 1 7 6 7 6 0 11 4 11 9 0 5 5 22 12 38 6 15 12 31
12 35 1 3 4 10 9 14 4 4 7 13 7 19 0 7 8 30 17 51 9 22 17 41 18 44 0 5 21 58
41 105 35 85 117 302 117 313 0 6 4 12 9 12 4 0 8 6 8 13 0 14 44 130 60 159
6 10 10 23 10 29 0 10 6 27 40 104 8 17 14 32 15 35 1 8 55 152 65 175 21 47
130 331 130 337 0 2 -120 3 -266 3 l-266 -1 -19 -49 c-10 -28 -19 -51 -19 -52
-1 -2 -6 -17 -13 -35 -6 -18 -10 -36 -9 -40 1 -5 -3 -8 -8 -8 -5 0 -9 -3 -8
-7 3 -11 -43 -143 -169 -493 -19 -52 -41 -117 -50 -145 -8 -27 -18 -54 -21
-60 -4 -5 -7 -13 -8 -17 -1 -5 -2 -9 -4 -10 -1 -2 -3 -10 -5 -18 -2 -8 -17
-53 -34 -100 -18 -47 -41 -112 -52 -145 -11 -33 -24 -64 -29 -68 -4 -5 -17 19
-28 52 -11 34 -18 61 -14 61 4 0 2 4 -4 8 -8 5 -54 115 -60 142 0 3 -3 12 -7
20 -3 8 -15 42 -26 75 -12 33 -25 69 -30 80 -5 11 -14 36 -21 55 -11 33 -16
46 -39 103 -29 70 -39 105 -34 111 4 3 1 6 -5 6 -7 0 -12 6 -12 14 0 8 -9 36
-20 62 -11 26 -22 54 -23 63 -2 9 -8 25 -14 36 -8 16 -22 60 -27 85 -1 3 -6
12 -11 20 -5 8 -10 20 -11 25 -4 22 -77 211 -85 219 -5 6 -123 10 -279 10
-240 1 -270 -1 -270 -15z"/>
</g>
</svg>
